G04 EAGLE Gerber RS-274X export*
G75*
%MOMM*%
%FSLAX34Y34*%
%LPD*%
%INBottom Copper*%
%IPPOS*%
%AMOC8*
5,1,8,0,0,1.08239X$1,22.5*%
G01*
%ADD10C,1.473200*%
%ADD11P,1.429621X8X202.500000*%
%ADD12R,1.650000X1.650000*%
%ADD13C,1.650000*%
%ADD14P,1.814519X8X202.500000*%
%ADD15P,1.814519X8X22.500000*%
%ADD16R,2.781300X2.781300*%
%ADD17C,2.781300*%
%ADD18R,1.910000X1.910000*%
%ADD19C,1.910000*%
%ADD20P,4.508804X8X22.500000*%
%ADD21R,2.100000X2.100000*%
%ADD22C,2.100000*%
%ADD23C,0.406400*%
%ADD24C,1.270000*%

G36*
X585922Y-165094D02*
X585922Y-165094D01*
X585970Y-165095D01*
X586042Y-165074D01*
X586117Y-165062D01*
X586160Y-165039D01*
X586206Y-165025D01*
X586268Y-164982D01*
X586335Y-164946D01*
X586368Y-164912D01*
X586407Y-164884D01*
X586452Y-164823D01*
X586504Y-164768D01*
X586524Y-164725D01*
X586553Y-164686D01*
X586576Y-164614D01*
X586608Y-164545D01*
X586613Y-164497D01*
X586627Y-164452D01*
X586626Y-164376D01*
X586635Y-164301D01*
X586624Y-164254D01*
X586624Y-164206D01*
X586598Y-164134D01*
X586582Y-164060D01*
X586558Y-164019D01*
X586542Y-163974D01*
X586495Y-163914D01*
X586456Y-163849D01*
X586420Y-163818D01*
X586390Y-163780D01*
X586286Y-163704D01*
X586269Y-163689D01*
X586263Y-163687D01*
X586255Y-163681D01*
X583991Y-162374D01*
X579306Y-157689D01*
X575994Y-151952D01*
X574279Y-145552D01*
X574279Y-138928D01*
X575994Y-132528D01*
X579306Y-126791D01*
X583991Y-122106D01*
X589728Y-118794D01*
X596128Y-117079D01*
X602752Y-117079D01*
X609152Y-118794D01*
X614889Y-122106D01*
X619574Y-126791D01*
X620879Y-129052D01*
X620909Y-129089D01*
X620932Y-129131D01*
X620986Y-129183D01*
X621035Y-129242D01*
X621075Y-129267D01*
X621110Y-129300D01*
X621179Y-129332D01*
X621243Y-129373D01*
X621290Y-129384D01*
X621333Y-129404D01*
X621408Y-129412D01*
X621482Y-129430D01*
X621530Y-129426D01*
X621577Y-129431D01*
X621652Y-129415D01*
X621727Y-129408D01*
X621771Y-129389D01*
X621818Y-129379D01*
X621883Y-129340D01*
X621952Y-129310D01*
X621988Y-129277D01*
X622029Y-129253D01*
X622078Y-129195D01*
X622134Y-129144D01*
X622158Y-129102D01*
X622189Y-129066D01*
X622217Y-128995D01*
X622254Y-128929D01*
X622263Y-128882D01*
X622281Y-128838D01*
X622295Y-128709D01*
X622299Y-128688D01*
X622298Y-128681D01*
X622299Y-128671D01*
X622299Y94731D01*
X622288Y94802D01*
X622286Y94874D01*
X622268Y94923D01*
X622260Y94974D01*
X622226Y95038D01*
X622201Y95105D01*
X622169Y95146D01*
X622144Y95192D01*
X622092Y95241D01*
X622048Y95297D01*
X622004Y95325D01*
X621966Y95361D01*
X621901Y95391D01*
X621841Y95430D01*
X621790Y95443D01*
X621743Y95465D01*
X621672Y95473D01*
X621602Y95490D01*
X621550Y95486D01*
X621499Y95492D01*
X621428Y95476D01*
X621357Y95471D01*
X621309Y95451D01*
X621258Y95439D01*
X621197Y95403D01*
X621131Y95375D01*
X621075Y95330D01*
X621047Y95313D01*
X621032Y95295D01*
X621000Y95270D01*
X613380Y87650D01*
X611073Y85343D01*
X589901Y85343D01*
X589786Y85324D01*
X589670Y85307D01*
X589664Y85305D01*
X589658Y85304D01*
X589555Y85249D01*
X589451Y85196D01*
X589446Y85191D01*
X589441Y85188D01*
X589361Y85104D01*
X589278Y85020D01*
X589275Y85014D01*
X589271Y85010D01*
X589264Y84993D01*
X589198Y84873D01*
X588044Y82089D01*
X584661Y78706D01*
X580242Y76875D01*
X575458Y76875D01*
X571039Y78706D01*
X567656Y82089D01*
X565825Y86508D01*
X565825Y91292D01*
X567656Y95711D01*
X571039Y99094D01*
X575458Y100925D01*
X580242Y100925D01*
X584661Y99094D01*
X588044Y95711D01*
X589198Y92927D01*
X589259Y92827D01*
X589319Y92727D01*
X589324Y92723D01*
X589327Y92718D01*
X589417Y92643D01*
X589506Y92567D01*
X589512Y92565D01*
X589517Y92561D01*
X589625Y92519D01*
X589734Y92475D01*
X589742Y92474D01*
X589746Y92473D01*
X589765Y92472D01*
X589901Y92457D01*
X607811Y92457D01*
X607902Y92471D01*
X607992Y92479D01*
X608022Y92491D01*
X608054Y92496D01*
X608135Y92539D01*
X608219Y92575D01*
X608251Y92601D01*
X608272Y92612D01*
X608294Y92635D01*
X608350Y92680D01*
X616488Y100818D01*
X616533Y100881D01*
X616559Y100908D01*
X616564Y100919D01*
X616601Y100962D01*
X616613Y100992D01*
X616632Y101018D01*
X616659Y101105D01*
X616693Y101190D01*
X616697Y101231D01*
X616704Y101253D01*
X616703Y101285D01*
X616711Y101357D01*
X616711Y290311D01*
X616697Y290402D01*
X616689Y290492D01*
X616677Y290522D01*
X616672Y290554D01*
X616629Y290635D01*
X616593Y290719D01*
X616567Y290751D01*
X616556Y290772D01*
X616533Y290794D01*
X616488Y290850D01*
X596793Y310545D01*
X596719Y310598D01*
X596649Y310658D01*
X596619Y310670D01*
X596593Y310689D01*
X596506Y310716D01*
X596421Y310750D01*
X596380Y310754D01*
X596358Y310761D01*
X596326Y310760D01*
X596254Y310768D01*
X497002Y310768D01*
X494695Y313075D01*
X486208Y321562D01*
X486112Y321631D01*
X486019Y321700D01*
X486013Y321702D01*
X486008Y321706D01*
X485896Y321740D01*
X485785Y321777D01*
X485779Y321776D01*
X485773Y321778D01*
X485656Y321775D01*
X485539Y321774D01*
X485532Y321772D01*
X485527Y321772D01*
X485510Y321766D01*
X485378Y321727D01*
X484368Y321309D01*
X480832Y321309D01*
X477564Y322663D01*
X475063Y325164D01*
X473709Y328432D01*
X473709Y331968D01*
X475063Y335236D01*
X477564Y337737D01*
X480832Y339091D01*
X484368Y339091D01*
X487636Y337737D01*
X490137Y335236D01*
X491491Y331968D01*
X491491Y328432D01*
X491073Y327422D01*
X491046Y327308D01*
X491017Y327195D01*
X491018Y327189D01*
X491016Y327183D01*
X491027Y327066D01*
X491036Y326950D01*
X491039Y326944D01*
X491039Y326938D01*
X491087Y326830D01*
X491133Y326723D01*
X491137Y326718D01*
X491139Y326713D01*
X491152Y326699D01*
X491238Y326592D01*
X499725Y318105D01*
X499799Y318052D01*
X499869Y317992D01*
X499899Y317980D01*
X499925Y317961D01*
X500012Y317934D01*
X500097Y317900D01*
X500138Y317896D01*
X500160Y317889D01*
X500192Y317890D01*
X500264Y317882D01*
X599516Y317882D01*
X601823Y315575D01*
X621000Y296398D01*
X621058Y296356D01*
X621110Y296307D01*
X621157Y296285D01*
X621199Y296255D01*
X621268Y296234D01*
X621333Y296203D01*
X621385Y296198D01*
X621435Y296182D01*
X621506Y296184D01*
X621577Y296176D01*
X621628Y296187D01*
X621680Y296189D01*
X621748Y296213D01*
X621818Y296229D01*
X621863Y296255D01*
X621911Y296273D01*
X621967Y296318D01*
X622029Y296355D01*
X622063Y296394D01*
X622103Y296427D01*
X622142Y296487D01*
X622189Y296542D01*
X622208Y296590D01*
X622236Y296634D01*
X622254Y296703D01*
X622281Y296770D01*
X622289Y296841D01*
X622297Y296872D01*
X622295Y296896D01*
X622299Y296937D01*
X622299Y509671D01*
X622292Y509718D01*
X622293Y509766D01*
X622272Y509839D01*
X622260Y509914D01*
X622237Y509956D01*
X622223Y510002D01*
X622180Y510064D01*
X622144Y510131D01*
X622110Y510164D01*
X622082Y510203D01*
X622021Y510248D01*
X621966Y510300D01*
X621923Y510321D01*
X621884Y510349D01*
X621812Y510372D01*
X621743Y510404D01*
X621695Y510409D01*
X621650Y510424D01*
X621574Y510423D01*
X621499Y510431D01*
X621452Y510421D01*
X621404Y510420D01*
X621332Y510395D01*
X621258Y510379D01*
X621217Y510354D01*
X621172Y510338D01*
X621112Y510292D01*
X621047Y510253D01*
X621016Y510216D01*
X620978Y510187D01*
X620902Y510083D01*
X620887Y510066D01*
X620885Y510060D01*
X620879Y510052D01*
X619574Y507791D01*
X614889Y503106D01*
X609152Y499794D01*
X602752Y498079D01*
X596128Y498079D01*
X589728Y499794D01*
X583991Y503106D01*
X579306Y507791D01*
X575994Y513528D01*
X574279Y519928D01*
X574279Y526552D01*
X575994Y532952D01*
X579306Y538689D01*
X583991Y543374D01*
X586252Y544679D01*
X586289Y544709D01*
X586331Y544732D01*
X586383Y544786D01*
X586442Y544835D01*
X586467Y544875D01*
X586500Y544910D01*
X586532Y544979D01*
X586573Y545043D01*
X586584Y545090D01*
X586604Y545133D01*
X586612Y545208D01*
X586630Y545282D01*
X586626Y545330D01*
X586631Y545377D01*
X586615Y545452D01*
X586608Y545527D01*
X586589Y545571D01*
X586579Y545618D01*
X586540Y545683D01*
X586510Y545752D01*
X586477Y545788D01*
X586453Y545829D01*
X586395Y545878D01*
X586344Y545934D01*
X586302Y545958D01*
X586266Y545989D01*
X586195Y546017D01*
X586129Y546054D01*
X586082Y546063D01*
X586038Y546081D01*
X585909Y546095D01*
X585888Y546099D01*
X585881Y546098D01*
X585871Y546099D01*
X49129Y546099D01*
X49082Y546092D01*
X49034Y546093D01*
X48961Y546072D01*
X48886Y546060D01*
X48844Y546037D01*
X48798Y546023D01*
X48736Y545980D01*
X48669Y545944D01*
X48636Y545910D01*
X48597Y545882D01*
X48552Y545821D01*
X48500Y545766D01*
X48479Y545723D01*
X48451Y545684D01*
X48428Y545612D01*
X48396Y545543D01*
X48391Y545495D01*
X48376Y545450D01*
X48377Y545374D01*
X48369Y545299D01*
X48379Y545252D01*
X48380Y545204D01*
X48405Y545132D01*
X48421Y545058D01*
X48446Y545017D01*
X48462Y544972D01*
X48508Y544912D01*
X48547Y544847D01*
X48584Y544816D01*
X48613Y544778D01*
X48717Y544702D01*
X48734Y544687D01*
X48740Y544685D01*
X48748Y544679D01*
X51009Y543374D01*
X55694Y538689D01*
X59006Y532952D01*
X60721Y526552D01*
X60721Y519928D01*
X59006Y513528D01*
X55694Y507791D01*
X51009Y503106D01*
X45272Y499794D01*
X38872Y498079D01*
X32248Y498079D01*
X25848Y499794D01*
X20111Y503106D01*
X15426Y507791D01*
X14067Y510145D01*
X14037Y510182D01*
X14014Y510225D01*
X13960Y510277D01*
X13911Y510335D01*
X13871Y510361D01*
X13836Y510394D01*
X13767Y510426D01*
X13703Y510466D01*
X13656Y510477D01*
X13613Y510498D01*
X13538Y510506D01*
X13464Y510524D01*
X13416Y510519D01*
X13369Y510525D01*
X13294Y510509D01*
X13219Y510502D01*
X13175Y510483D01*
X13128Y510472D01*
X13063Y510434D01*
X12994Y510403D01*
X12958Y510371D01*
X12917Y510346D01*
X12868Y510289D01*
X12812Y510238D01*
X12788Y510196D01*
X12757Y510159D01*
X12729Y510089D01*
X12692Y510023D01*
X12683Y509976D01*
X12665Y509931D01*
X12651Y509803D01*
X12647Y509781D01*
X12648Y509775D01*
X12647Y509764D01*
X12647Y-128764D01*
X12654Y-128812D01*
X12653Y-128860D01*
X12674Y-128932D01*
X12686Y-129007D01*
X12709Y-129050D01*
X12723Y-129096D01*
X12766Y-129158D01*
X12802Y-129225D01*
X12836Y-129258D01*
X12864Y-129297D01*
X12925Y-129342D01*
X12980Y-129394D01*
X13023Y-129414D01*
X13062Y-129443D01*
X13134Y-129466D01*
X13203Y-129498D01*
X13251Y-129503D01*
X13296Y-129518D01*
X13372Y-129516D01*
X13447Y-129525D01*
X13494Y-129515D01*
X13542Y-129514D01*
X13614Y-129489D01*
X13688Y-129472D01*
X13729Y-129448D01*
X13774Y-129432D01*
X13834Y-129385D01*
X13899Y-129346D01*
X13930Y-129310D01*
X13968Y-129280D01*
X14044Y-129176D01*
X14059Y-129159D01*
X14061Y-129153D01*
X14067Y-129145D01*
X15426Y-126791D01*
X20111Y-122106D01*
X25848Y-118794D01*
X32248Y-117079D01*
X38872Y-117079D01*
X45272Y-118794D01*
X51009Y-122106D01*
X55694Y-126791D01*
X59006Y-132528D01*
X60721Y-138928D01*
X60721Y-145552D01*
X59006Y-151952D01*
X55694Y-157689D01*
X51009Y-162374D01*
X48745Y-163681D01*
X48708Y-163711D01*
X48665Y-163734D01*
X48613Y-163788D01*
X48555Y-163837D01*
X48529Y-163877D01*
X48496Y-163912D01*
X48464Y-163981D01*
X48424Y-164045D01*
X48413Y-164092D01*
X48392Y-164135D01*
X48384Y-164210D01*
X48366Y-164284D01*
X48371Y-164332D01*
X48365Y-164379D01*
X48381Y-164454D01*
X48388Y-164529D01*
X48407Y-164573D01*
X48418Y-164620D01*
X48457Y-164685D01*
X48487Y-164754D01*
X48519Y-164790D01*
X48544Y-164831D01*
X48601Y-164880D01*
X48652Y-164936D01*
X48694Y-164960D01*
X48731Y-164991D01*
X48801Y-165019D01*
X48867Y-165056D01*
X48914Y-165065D01*
X48959Y-165083D01*
X49087Y-165097D01*
X49109Y-165101D01*
X49116Y-165100D01*
X49126Y-165101D01*
X585874Y-165101D01*
X585922Y-165094D01*
G37*
%LPC*%
G36*
X48206Y-28841D02*
X48206Y-28841D01*
X43413Y-26855D01*
X39745Y-23187D01*
X37759Y-18394D01*
X37759Y-13206D01*
X39745Y-8413D01*
X43413Y-4745D01*
X48206Y-2759D01*
X53394Y-2759D01*
X58187Y-4745D01*
X60129Y-6686D01*
X60203Y-6739D01*
X60272Y-6799D01*
X60302Y-6811D01*
X60328Y-6830D01*
X60415Y-6857D01*
X60500Y-6891D01*
X60541Y-6895D01*
X60563Y-6902D01*
X60596Y-6901D01*
X60667Y-6909D01*
X155233Y-6909D01*
X155323Y-6895D01*
X155414Y-6887D01*
X155444Y-6875D01*
X155476Y-6870D01*
X155556Y-6827D01*
X155640Y-6791D01*
X155672Y-6765D01*
X155693Y-6754D01*
X155715Y-6731D01*
X155771Y-6686D01*
X157713Y-4745D01*
X162506Y-2759D01*
X165252Y-2759D01*
X165342Y-2745D01*
X165433Y-2737D01*
X165463Y-2725D01*
X165495Y-2720D01*
X165575Y-2677D01*
X165659Y-2641D01*
X165691Y-2615D01*
X165712Y-2604D01*
X165734Y-2581D01*
X165790Y-2536D01*
X169514Y1187D01*
X172782Y2541D01*
X294452Y2541D01*
X294542Y2555D01*
X294633Y2563D01*
X294663Y2575D01*
X294695Y2580D01*
X294775Y2623D01*
X294859Y2659D01*
X294891Y2685D01*
X294912Y2696D01*
X294934Y2719D01*
X294990Y2764D01*
X308386Y16160D01*
X308439Y16234D01*
X308499Y16303D01*
X308511Y16333D01*
X308530Y16359D01*
X308557Y16446D01*
X308591Y16531D01*
X308595Y16572D01*
X308602Y16595D01*
X308601Y16627D01*
X308609Y16698D01*
X308609Y71541D01*
X309963Y74809D01*
X364764Y129610D01*
X364806Y129668D01*
X364855Y129720D01*
X364877Y129767D01*
X364908Y129809D01*
X364929Y129878D01*
X364959Y129943D01*
X364965Y129995D01*
X364980Y130045D01*
X364978Y130116D01*
X364986Y130187D01*
X364975Y130238D01*
X364974Y130290D01*
X364949Y130358D01*
X364934Y130428D01*
X364907Y130473D01*
X364889Y130521D01*
X364844Y130577D01*
X364807Y130639D01*
X364768Y130673D01*
X364735Y130713D01*
X364675Y130752D01*
X364621Y130799D01*
X364572Y130818D01*
X364528Y130846D01*
X364459Y130864D01*
X364392Y130891D01*
X364321Y130899D01*
X364290Y130907D01*
X364267Y130905D01*
X364226Y130909D01*
X213648Y130909D01*
X213558Y130895D01*
X213467Y130887D01*
X213437Y130875D01*
X213405Y130870D01*
X213325Y130827D01*
X213241Y130791D01*
X213209Y130765D01*
X213188Y130754D01*
X213166Y130731D01*
X213110Y130686D01*
X198786Y116363D01*
X195518Y115009D01*
X174967Y115009D01*
X174877Y114995D01*
X174786Y114987D01*
X174756Y114975D01*
X174724Y114970D01*
X174644Y114927D01*
X174560Y114891D01*
X174527Y114865D01*
X174507Y114854D01*
X174485Y114831D01*
X174429Y114786D01*
X172487Y112845D01*
X167694Y110859D01*
X162506Y110859D01*
X157713Y112845D01*
X155771Y114786D01*
X155697Y114839D01*
X155628Y114899D01*
X155598Y114911D01*
X155572Y114930D01*
X155485Y114957D01*
X155400Y114991D01*
X155359Y114995D01*
X155337Y115002D01*
X155304Y115001D01*
X155233Y115009D01*
X60667Y115009D01*
X60577Y114995D01*
X60486Y114987D01*
X60456Y114975D01*
X60424Y114970D01*
X60344Y114927D01*
X60260Y114891D01*
X60228Y114865D01*
X60207Y114854D01*
X60185Y114831D01*
X60129Y114786D01*
X58187Y112845D01*
X53394Y110859D01*
X48206Y110859D01*
X43413Y112845D01*
X39745Y116513D01*
X37759Y121306D01*
X37759Y126494D01*
X39745Y131287D01*
X43413Y134955D01*
X48206Y136941D01*
X53394Y136941D01*
X58187Y134955D01*
X60129Y133014D01*
X60203Y132961D01*
X60272Y132901D01*
X60302Y132889D01*
X60328Y132870D01*
X60415Y132843D01*
X60500Y132809D01*
X60541Y132805D01*
X60564Y132798D01*
X60596Y132799D01*
X60667Y132791D01*
X155233Y132791D01*
X155323Y132805D01*
X155414Y132813D01*
X155444Y132825D01*
X155476Y132830D01*
X155556Y132873D01*
X155640Y132909D01*
X155673Y132935D01*
X155693Y132946D01*
X155715Y132969D01*
X155771Y133014D01*
X157713Y134955D01*
X162506Y136941D01*
X167694Y136941D01*
X172487Y134955D01*
X174429Y133014D01*
X174503Y132961D01*
X174572Y132901D01*
X174602Y132889D01*
X174628Y132870D01*
X174715Y132843D01*
X174800Y132809D01*
X174841Y132805D01*
X174863Y132798D01*
X174896Y132799D01*
X174967Y132791D01*
X189752Y132791D01*
X189842Y132805D01*
X189933Y132813D01*
X189963Y132825D01*
X189995Y132830D01*
X190075Y132873D01*
X190159Y132909D01*
X190191Y132935D01*
X190212Y132946D01*
X190234Y132969D01*
X190290Y133014D01*
X202006Y144729D01*
X204614Y147337D01*
X207882Y148691D01*
X369820Y148691D01*
X369891Y148702D01*
X369962Y148704D01*
X370011Y148722D01*
X370063Y148730D01*
X370126Y148764D01*
X370193Y148789D01*
X370234Y148821D01*
X370280Y148846D01*
X370329Y148898D01*
X370385Y148942D01*
X370414Y148986D01*
X370449Y149024D01*
X370480Y149089D01*
X370518Y149149D01*
X370531Y149200D01*
X370553Y149247D01*
X370561Y149318D01*
X370578Y149388D01*
X370574Y149440D01*
X370580Y149491D01*
X370565Y149562D01*
X370559Y149633D01*
X370539Y149681D01*
X370528Y149732D01*
X370491Y149793D01*
X370463Y149859D01*
X370418Y149915D01*
X370402Y149943D01*
X370384Y149958D01*
X370358Y149990D01*
X364362Y155986D01*
X364288Y156039D01*
X364219Y156099D01*
X364189Y156111D01*
X364162Y156130D01*
X364075Y156157D01*
X363991Y156191D01*
X363950Y156195D01*
X363927Y156202D01*
X363895Y156201D01*
X363824Y156209D01*
X261832Y156209D01*
X258564Y157563D01*
X165790Y250336D01*
X165716Y250389D01*
X165647Y250449D01*
X165617Y250461D01*
X165591Y250480D01*
X165504Y250507D01*
X165419Y250541D01*
X165378Y250545D01*
X165355Y250552D01*
X165323Y250551D01*
X165252Y250559D01*
X162506Y250559D01*
X157713Y252545D01*
X155771Y254486D01*
X155697Y254539D01*
X155628Y254599D01*
X155598Y254611D01*
X155572Y254630D01*
X155485Y254657D01*
X155400Y254691D01*
X155359Y254695D01*
X155336Y254702D01*
X155304Y254701D01*
X155233Y254709D01*
X60667Y254709D01*
X60577Y254695D01*
X60486Y254687D01*
X60456Y254675D01*
X60424Y254670D01*
X60344Y254627D01*
X60260Y254591D01*
X60228Y254565D01*
X60207Y254554D01*
X60185Y254531D01*
X60129Y254486D01*
X58187Y252545D01*
X53394Y250559D01*
X48206Y250559D01*
X43413Y252545D01*
X39745Y256213D01*
X37759Y261006D01*
X37759Y266194D01*
X39745Y270987D01*
X43413Y274655D01*
X48206Y276641D01*
X53394Y276641D01*
X58187Y274655D01*
X60129Y272714D01*
X60203Y272661D01*
X60272Y272601D01*
X60302Y272589D01*
X60328Y272570D01*
X60415Y272543D01*
X60500Y272509D01*
X60541Y272505D01*
X60564Y272498D01*
X60596Y272499D01*
X60667Y272491D01*
X155233Y272491D01*
X155323Y272505D01*
X155414Y272513D01*
X155444Y272525D01*
X155476Y272530D01*
X155556Y272573D01*
X155640Y272609D01*
X155672Y272635D01*
X155693Y272646D01*
X155715Y272669D01*
X155771Y272714D01*
X157713Y274655D01*
X162506Y276641D01*
X167694Y276641D01*
X172487Y274655D01*
X176155Y270987D01*
X178141Y266194D01*
X178141Y263448D01*
X178155Y263358D01*
X178163Y263267D01*
X178175Y263237D01*
X178180Y263205D01*
X178223Y263125D01*
X178259Y263041D01*
X178285Y263009D01*
X178296Y262988D01*
X178319Y262966D01*
X178364Y262910D01*
X267060Y174214D01*
X267134Y174161D01*
X267203Y174101D01*
X267233Y174089D01*
X267259Y174070D01*
X267346Y174043D01*
X267431Y174009D01*
X267472Y174005D01*
X267495Y173998D01*
X267527Y173999D01*
X267598Y173991D01*
X357698Y173991D01*
X357769Y174002D01*
X357841Y174004D01*
X357889Y174022D01*
X357941Y174030D01*
X358004Y174064D01*
X358072Y174089D01*
X358112Y174121D01*
X358158Y174146D01*
X358208Y174198D01*
X358264Y174242D01*
X358292Y174286D01*
X358328Y174324D01*
X358358Y174389D01*
X358397Y174449D01*
X358409Y174500D01*
X358431Y174547D01*
X358439Y174618D01*
X358457Y174688D01*
X358453Y174740D01*
X358458Y174791D01*
X358443Y174862D01*
X358437Y174933D01*
X358417Y174981D01*
X358406Y175032D01*
X358369Y175093D01*
X358341Y175159D01*
X358296Y175215D01*
X358280Y175243D01*
X358262Y175258D01*
X358236Y175290D01*
X326994Y206532D01*
X326920Y206585D01*
X326851Y206645D01*
X326821Y206657D01*
X326795Y206676D01*
X326708Y206703D01*
X326623Y206737D01*
X326582Y206741D01*
X326559Y206748D01*
X326527Y206747D01*
X326456Y206755D01*
X326412Y206755D01*
X326381Y206786D01*
X326307Y206839D01*
X326238Y206899D01*
X326208Y206911D01*
X326181Y206930D01*
X326094Y206957D01*
X326010Y206991D01*
X325969Y206995D01*
X325946Y207002D01*
X325914Y207001D01*
X325843Y207009D01*
X309382Y207009D01*
X306114Y208363D01*
X256890Y257586D01*
X256816Y257639D01*
X256747Y257699D01*
X256717Y257711D01*
X256691Y257730D01*
X256604Y257757D01*
X256519Y257791D01*
X256478Y257795D01*
X256455Y257802D01*
X256423Y257801D01*
X256352Y257809D01*
X246902Y257809D01*
X246812Y257795D01*
X246721Y257787D01*
X246691Y257775D01*
X246659Y257770D01*
X246578Y257727D01*
X246494Y257691D01*
X246462Y257665D01*
X246442Y257654D01*
X246419Y257631D01*
X246363Y257586D01*
X244554Y255777D01*
X235506Y255777D01*
X229107Y262176D01*
X229107Y271224D01*
X235506Y277623D01*
X244554Y277623D01*
X246363Y275814D01*
X246437Y275761D01*
X246507Y275701D01*
X246537Y275689D01*
X246563Y275670D01*
X246650Y275643D01*
X246735Y275609D01*
X246776Y275605D01*
X246798Y275598D01*
X246830Y275599D01*
X246902Y275591D01*
X262118Y275591D01*
X265386Y274237D01*
X314610Y225014D01*
X314684Y224961D01*
X314753Y224901D01*
X314783Y224889D01*
X314809Y224870D01*
X314896Y224843D01*
X314981Y224809D01*
X315022Y224805D01*
X315045Y224798D01*
X315077Y224799D01*
X315148Y224791D01*
X325843Y224791D01*
X325933Y224805D01*
X326024Y224813D01*
X326054Y224825D01*
X326086Y224830D01*
X326166Y224873D01*
X326250Y224909D01*
X326282Y224935D01*
X326303Y224946D01*
X326325Y224969D01*
X326381Y225014D01*
X326412Y225045D01*
X333988Y225045D01*
X339345Y219688D01*
X339345Y219644D01*
X339359Y219554D01*
X339367Y219463D01*
X339379Y219433D01*
X339384Y219401D01*
X339427Y219321D01*
X339463Y219237D01*
X339489Y219205D01*
X339500Y219184D01*
X339523Y219162D01*
X339568Y219106D01*
X375359Y183314D01*
X376713Y180047D01*
X376713Y169098D01*
X376727Y169008D01*
X376734Y168917D01*
X376747Y168887D01*
X376752Y168855D01*
X376776Y168811D01*
X376776Y168808D01*
X376786Y168791D01*
X376795Y168775D01*
X376831Y168691D01*
X376856Y168659D01*
X376867Y168638D01*
X376891Y168616D01*
X376892Y168614D01*
X376903Y168597D01*
X376914Y168587D01*
X376936Y168560D01*
X381326Y164170D01*
X381384Y164128D01*
X381436Y164078D01*
X381483Y164056D01*
X381525Y164026D01*
X381594Y164005D01*
X381659Y163975D01*
X381711Y163969D01*
X381761Y163954D01*
X381832Y163955D01*
X381903Y163948D01*
X381954Y163959D01*
X382006Y163960D01*
X382074Y163985D01*
X382144Y164000D01*
X382189Y164027D01*
X382237Y164044D01*
X382293Y164089D01*
X382355Y164126D01*
X382389Y164166D01*
X382429Y164198D01*
X382468Y164258D01*
X382515Y164313D01*
X382534Y164361D01*
X382562Y164405D01*
X382580Y164475D01*
X382607Y164541D01*
X382615Y164612D01*
X382623Y164644D01*
X382621Y164667D01*
X382625Y164708D01*
X382625Y167503D01*
X384311Y171573D01*
X387427Y174689D01*
X391497Y176375D01*
X395903Y176375D01*
X399973Y174689D01*
X403089Y171573D01*
X404775Y167503D01*
X404775Y164708D01*
X404786Y164637D01*
X404788Y164565D01*
X404806Y164516D01*
X404814Y164465D01*
X404848Y164402D01*
X404873Y164334D01*
X404905Y164294D01*
X404930Y164248D01*
X404982Y164198D01*
X405026Y164142D01*
X405070Y164114D01*
X405108Y164078D01*
X405173Y164048D01*
X405233Y164009D01*
X405284Y163997D01*
X405331Y163975D01*
X405402Y163967D01*
X405472Y163949D01*
X405524Y163953D01*
X405575Y163948D01*
X405646Y163963D01*
X405717Y163968D01*
X405765Y163989D01*
X405816Y164000D01*
X405877Y164037D01*
X405943Y164065D01*
X405999Y164109D01*
X406027Y164126D01*
X406042Y164144D01*
X406074Y164170D01*
X422686Y180782D01*
X422739Y180856D01*
X422799Y180925D01*
X422811Y180955D01*
X422830Y180981D01*
X422857Y181068D01*
X422891Y181153D01*
X422895Y181194D01*
X422902Y181216D01*
X422901Y181249D01*
X422909Y181320D01*
X422909Y243068D01*
X424263Y246336D01*
X449064Y271137D01*
X452332Y272491D01*
X453683Y272491D01*
X453773Y272505D01*
X453864Y272513D01*
X453894Y272525D01*
X453926Y272530D01*
X454006Y272573D01*
X454090Y272609D01*
X454123Y272635D01*
X454143Y272646D01*
X454165Y272669D01*
X454221Y272714D01*
X456163Y274655D01*
X460956Y276641D01*
X466144Y276641D01*
X470937Y274655D01*
X472879Y272714D01*
X472953Y272661D01*
X473022Y272601D01*
X473052Y272589D01*
X473078Y272570D01*
X473165Y272543D01*
X473250Y272509D01*
X473291Y272505D01*
X473314Y272498D01*
X473346Y272499D01*
X473417Y272491D01*
X567983Y272491D01*
X568073Y272505D01*
X568164Y272513D01*
X568194Y272525D01*
X568226Y272530D01*
X568306Y272573D01*
X568390Y272609D01*
X568422Y272635D01*
X568443Y272646D01*
X568465Y272669D01*
X568521Y272714D01*
X570463Y274655D01*
X575256Y276641D01*
X580444Y276641D01*
X585237Y274655D01*
X588905Y270987D01*
X590891Y266194D01*
X590891Y261006D01*
X588905Y256213D01*
X585237Y252545D01*
X580444Y250559D01*
X575256Y250559D01*
X570463Y252545D01*
X568521Y254486D01*
X568447Y254539D01*
X568378Y254599D01*
X568348Y254611D01*
X568322Y254630D01*
X568235Y254657D01*
X568150Y254691D01*
X568109Y254695D01*
X568086Y254702D01*
X568054Y254701D01*
X567983Y254709D01*
X473417Y254709D01*
X473327Y254695D01*
X473236Y254687D01*
X473206Y254675D01*
X473174Y254670D01*
X473094Y254627D01*
X473010Y254591D01*
X472978Y254565D01*
X472957Y254554D01*
X472935Y254531D01*
X472879Y254486D01*
X470937Y252545D01*
X466144Y250559D01*
X460956Y250559D01*
X456248Y252510D01*
X456134Y252536D01*
X456020Y252565D01*
X456014Y252564D01*
X456008Y252566D01*
X455891Y252555D01*
X455775Y252546D01*
X455770Y252543D01*
X455763Y252543D01*
X455656Y252495D01*
X455549Y252449D01*
X455543Y252445D01*
X455538Y252443D01*
X455525Y252430D01*
X455418Y252345D01*
X440914Y237840D01*
X440861Y237766D01*
X440801Y237697D01*
X440789Y237667D01*
X440770Y237641D01*
X440743Y237554D01*
X440709Y237469D01*
X440705Y237428D01*
X440698Y237405D01*
X440699Y237373D01*
X440691Y237302D01*
X440691Y175553D01*
X439337Y172286D01*
X436729Y169678D01*
X417042Y149990D01*
X417000Y149932D01*
X416951Y149880D01*
X416929Y149833D01*
X416898Y149791D01*
X416877Y149722D01*
X416847Y149657D01*
X416841Y149605D01*
X416826Y149555D01*
X416828Y149484D01*
X416820Y149413D01*
X416831Y149362D01*
X416832Y149310D01*
X416857Y149242D01*
X416872Y149172D01*
X416899Y149127D01*
X416917Y149079D01*
X416962Y149023D01*
X416998Y148961D01*
X417038Y148927D01*
X417070Y148887D01*
X417131Y148848D01*
X417185Y148801D01*
X417234Y148782D01*
X417277Y148754D01*
X417347Y148736D01*
X417413Y148709D01*
X417485Y148701D01*
X417516Y148693D01*
X417539Y148695D01*
X417580Y148691D01*
X449418Y148691D01*
X452686Y147337D01*
X455294Y144729D01*
X462860Y137164D01*
X462934Y137111D01*
X463003Y137051D01*
X463033Y137039D01*
X463059Y137020D01*
X463146Y136993D01*
X463231Y136959D01*
X463272Y136955D01*
X463295Y136948D01*
X463327Y136949D01*
X463398Y136941D01*
X466144Y136941D01*
X470937Y134955D01*
X474605Y131287D01*
X476591Y126494D01*
X476591Y121306D01*
X474605Y116513D01*
X470937Y112845D01*
X466144Y110859D01*
X460956Y110859D01*
X456163Y112845D01*
X452495Y116513D01*
X450509Y121306D01*
X450509Y124052D01*
X450495Y124142D01*
X450487Y124233D01*
X450475Y124263D01*
X450470Y124295D01*
X450427Y124375D01*
X450391Y124459D01*
X450365Y124491D01*
X450354Y124512D01*
X450331Y124534D01*
X450286Y124590D01*
X444190Y130686D01*
X444116Y130739D01*
X444047Y130799D01*
X444017Y130811D01*
X443991Y130830D01*
X443904Y130857D01*
X443819Y130891D01*
X443778Y130895D01*
X443756Y130902D01*
X443723Y130901D01*
X443652Y130909D01*
X429602Y130909D01*
X429531Y130898D01*
X429459Y130896D01*
X429410Y130878D01*
X429359Y130870D01*
X429296Y130836D01*
X429228Y130811D01*
X429188Y130779D01*
X429142Y130754D01*
X429092Y130703D01*
X429036Y130658D01*
X429008Y130614D01*
X428972Y130576D01*
X428942Y130511D01*
X428903Y130451D01*
X428891Y130400D01*
X428869Y130353D01*
X428861Y130282D01*
X428843Y130212D01*
X428847Y130160D01*
X428842Y130109D01*
X428857Y130038D01*
X428863Y129967D01*
X428883Y129919D01*
X428894Y129868D01*
X428931Y129807D01*
X428959Y129741D01*
X429004Y129685D01*
X429020Y129657D01*
X429038Y129642D01*
X429064Y129610D01*
X443079Y115594D01*
X445687Y112986D01*
X447041Y109718D01*
X447041Y16876D01*
X447055Y16786D01*
X447063Y16695D01*
X447075Y16665D01*
X447080Y16633D01*
X447123Y16552D01*
X447159Y16468D01*
X447185Y16436D01*
X447196Y16415D01*
X447219Y16393D01*
X447264Y16337D01*
X466406Y-2805D01*
X466459Y-2843D01*
X466506Y-2889D01*
X466579Y-2930D01*
X466606Y-2949D01*
X466624Y-2954D01*
X466653Y-2970D01*
X470937Y-4745D01*
X472879Y-6686D01*
X472953Y-6739D01*
X473022Y-6799D01*
X473052Y-6811D01*
X473078Y-6830D01*
X473165Y-6857D01*
X473250Y-6891D01*
X473291Y-6895D01*
X473314Y-6902D01*
X473346Y-6901D01*
X473417Y-6909D01*
X567983Y-6909D01*
X568073Y-6895D01*
X568164Y-6887D01*
X568194Y-6875D01*
X568226Y-6870D01*
X568306Y-6827D01*
X568390Y-6791D01*
X568422Y-6765D01*
X568443Y-6754D01*
X568465Y-6731D01*
X568521Y-6686D01*
X570463Y-4745D01*
X575256Y-2759D01*
X580444Y-2759D01*
X585237Y-4745D01*
X588905Y-8413D01*
X590891Y-13206D01*
X590891Y-18394D01*
X588905Y-23187D01*
X585237Y-26855D01*
X580444Y-28841D01*
X575256Y-28841D01*
X570463Y-26855D01*
X568521Y-24914D01*
X568447Y-24861D01*
X568378Y-24801D01*
X568348Y-24789D01*
X568322Y-24770D01*
X568235Y-24743D01*
X568150Y-24709D01*
X568109Y-24705D01*
X568086Y-24698D01*
X568054Y-24699D01*
X567983Y-24691D01*
X473417Y-24691D01*
X473327Y-24705D01*
X473236Y-24713D01*
X473206Y-24725D01*
X473174Y-24730D01*
X473094Y-24773D01*
X473010Y-24809D01*
X472978Y-24835D01*
X472957Y-24846D01*
X472935Y-24869D01*
X472879Y-24914D01*
X470937Y-26855D01*
X466144Y-28841D01*
X460956Y-28841D01*
X456163Y-26855D01*
X452495Y-23187D01*
X450509Y-18394D01*
X450509Y-13206D01*
X450652Y-12862D01*
X450678Y-12749D01*
X450707Y-12635D01*
X450706Y-12629D01*
X450708Y-12623D01*
X450697Y-12506D01*
X450688Y-12390D01*
X450685Y-12384D01*
X450685Y-12378D01*
X450637Y-12270D01*
X450592Y-12163D01*
X450587Y-12158D01*
X450585Y-12153D01*
X450572Y-12139D01*
X450487Y-12032D01*
X430613Y7841D01*
X429259Y11109D01*
X429259Y103952D01*
X429245Y104042D01*
X429237Y104133D01*
X429225Y104163D01*
X429220Y104195D01*
X429177Y104275D01*
X429141Y104359D01*
X429115Y104391D01*
X429104Y104412D01*
X429081Y104434D01*
X429036Y104490D01*
X409290Y124236D01*
X409216Y124289D01*
X409147Y124349D01*
X409117Y124361D01*
X409091Y124380D01*
X409004Y124407D01*
X408919Y124441D01*
X408878Y124445D01*
X408856Y124452D01*
X408823Y124451D01*
X408752Y124459D01*
X406552Y124459D01*
X406532Y124456D01*
X406513Y124458D01*
X406411Y124436D01*
X406309Y124420D01*
X406292Y124410D01*
X406272Y124406D01*
X406183Y124353D01*
X406092Y124304D01*
X406078Y124290D01*
X406061Y124280D01*
X405994Y124201D01*
X405922Y124126D01*
X405914Y124108D01*
X405901Y124093D01*
X405862Y123997D01*
X405819Y123903D01*
X405817Y123883D01*
X405809Y123865D01*
X405791Y123698D01*
X405791Y115823D01*
X394462Y115823D01*
X394442Y115820D01*
X394423Y115822D01*
X394321Y115800D01*
X394219Y115783D01*
X394202Y115774D01*
X394182Y115770D01*
X394093Y115717D01*
X394002Y115668D01*
X393988Y115654D01*
X393971Y115644D01*
X393904Y115565D01*
X393833Y115490D01*
X393824Y115472D01*
X393811Y115457D01*
X393773Y115361D01*
X393729Y115267D01*
X393727Y115247D01*
X393719Y115229D01*
X393701Y115062D01*
X393701Y114299D01*
X393699Y114299D01*
X393699Y115062D01*
X393697Y115072D01*
X393698Y115078D01*
X393696Y115086D01*
X393698Y115101D01*
X393676Y115203D01*
X393659Y115305D01*
X393650Y115322D01*
X393646Y115342D01*
X393593Y115431D01*
X393544Y115522D01*
X393530Y115536D01*
X393520Y115553D01*
X393441Y115620D01*
X393366Y115691D01*
X393348Y115700D01*
X393333Y115713D01*
X393237Y115752D01*
X393143Y115795D01*
X393123Y115797D01*
X393105Y115805D01*
X392938Y115823D01*
X381609Y115823D01*
X381609Y119470D01*
X381598Y119541D01*
X381596Y119613D01*
X381578Y119662D01*
X381570Y119713D01*
X381536Y119777D01*
X381511Y119844D01*
X381479Y119885D01*
X381454Y119931D01*
X381402Y119980D01*
X381358Y120036D01*
X381314Y120064D01*
X381276Y120100D01*
X381211Y120130D01*
X381151Y120169D01*
X381100Y120182D01*
X381053Y120204D01*
X380982Y120211D01*
X380912Y120229D01*
X380860Y120225D01*
X380809Y120231D01*
X380738Y120215D01*
X380667Y120210D01*
X380619Y120190D01*
X380568Y120178D01*
X380507Y120142D01*
X380441Y120114D01*
X380385Y120069D01*
X380357Y120052D01*
X380342Y120034D01*
X380310Y120009D01*
X326614Y66313D01*
X326561Y66239D01*
X326501Y66169D01*
X326489Y66139D01*
X326470Y66113D01*
X326443Y66026D01*
X326409Y65941D01*
X326405Y65900D01*
X326398Y65878D01*
X326399Y65846D01*
X326391Y65774D01*
X326391Y10932D01*
X325037Y7664D01*
X306094Y-11279D01*
X303486Y-13887D01*
X300218Y-15241D01*
X178902Y-15241D01*
X178882Y-15244D01*
X178863Y-15242D01*
X178761Y-15264D01*
X178659Y-15280D01*
X178642Y-15290D01*
X178622Y-15294D01*
X178533Y-15347D01*
X178442Y-15396D01*
X178428Y-15410D01*
X178411Y-15420D01*
X178344Y-15499D01*
X178272Y-15574D01*
X178264Y-15592D01*
X178251Y-15607D01*
X178212Y-15703D01*
X178169Y-15797D01*
X178167Y-15817D01*
X178159Y-15835D01*
X178141Y-16002D01*
X178141Y-18394D01*
X176155Y-23187D01*
X172487Y-26855D01*
X167694Y-28841D01*
X162506Y-28841D01*
X157713Y-26855D01*
X155771Y-24914D01*
X155697Y-24861D01*
X155628Y-24801D01*
X155598Y-24789D01*
X155572Y-24770D01*
X155485Y-24743D01*
X155400Y-24709D01*
X155359Y-24705D01*
X155336Y-24698D01*
X155304Y-24699D01*
X155233Y-24691D01*
X60667Y-24691D01*
X60577Y-24705D01*
X60486Y-24713D01*
X60456Y-24725D01*
X60424Y-24730D01*
X60344Y-24773D01*
X60260Y-24809D01*
X60227Y-24835D01*
X60207Y-24846D01*
X60185Y-24869D01*
X60129Y-24914D01*
X58187Y-26855D01*
X53394Y-28841D01*
X48206Y-28841D01*
G37*
%LPD*%
%LPC*%
G36*
X461158Y76875D02*
X461158Y76875D01*
X456739Y78706D01*
X453356Y82089D01*
X451525Y86508D01*
X451525Y91292D01*
X453356Y95711D01*
X456739Y99094D01*
X461158Y100925D01*
X465942Y100925D01*
X470361Y99094D01*
X473744Y95711D01*
X474898Y92927D01*
X474959Y92827D01*
X475019Y92727D01*
X475024Y92723D01*
X475027Y92718D01*
X475117Y92643D01*
X475206Y92567D01*
X475212Y92565D01*
X475217Y92561D01*
X475325Y92519D01*
X475434Y92475D01*
X475442Y92474D01*
X475446Y92473D01*
X475465Y92472D01*
X475601Y92457D01*
X503036Y92457D01*
X503127Y92471D01*
X503217Y92479D01*
X503247Y92491D01*
X503279Y92496D01*
X503360Y92539D01*
X503444Y92575D01*
X503476Y92601D01*
X503497Y92612D01*
X503519Y92635D01*
X503575Y92680D01*
X590676Y179781D01*
X590690Y179801D01*
X590709Y179816D01*
X590762Y179901D01*
X590820Y179981D01*
X590827Y180004D01*
X590840Y180024D01*
X590863Y180121D01*
X590892Y180216D01*
X590891Y180240D01*
X590897Y180264D01*
X590888Y180362D01*
X590886Y180462D01*
X590877Y180485D01*
X590875Y180509D01*
X590836Y180599D01*
X590831Y180613D01*
X590924Y180589D01*
X591019Y180559D01*
X591043Y180559D01*
X591066Y180554D01*
X591165Y180561D01*
X591265Y180563D01*
X591288Y180571D01*
X591312Y180573D01*
X591403Y180612D01*
X591497Y180645D01*
X591516Y180660D01*
X591538Y180669D01*
X591669Y180774D01*
X593120Y182225D01*
X593173Y182299D01*
X593233Y182369D01*
X593245Y182399D01*
X593264Y182425D01*
X593291Y182512D01*
X593325Y182597D01*
X593329Y182638D01*
X593336Y182660D01*
X593335Y182692D01*
X593343Y182764D01*
X593343Y283961D01*
X593329Y284052D01*
X593321Y284142D01*
X593309Y284172D01*
X593304Y284204D01*
X593261Y284285D01*
X593225Y284369D01*
X593199Y284401D01*
X593188Y284422D01*
X593165Y284444D01*
X593120Y284500D01*
X586125Y291495D01*
X586051Y291548D01*
X585981Y291608D01*
X585951Y291620D01*
X585925Y291639D01*
X585838Y291666D01*
X585753Y291700D01*
X585712Y291704D01*
X585690Y291711D01*
X585658Y291710D01*
X585586Y291718D01*
X490652Y291718D01*
X488345Y294025D01*
X460808Y321562D01*
X460713Y321631D01*
X460619Y321700D01*
X460613Y321702D01*
X460608Y321706D01*
X460496Y321740D01*
X460385Y321777D01*
X460379Y321776D01*
X460373Y321778D01*
X460256Y321775D01*
X460139Y321774D01*
X460132Y321772D01*
X460127Y321772D01*
X460110Y321766D01*
X459978Y321727D01*
X458968Y321309D01*
X455432Y321309D01*
X452164Y322663D01*
X449663Y325164D01*
X448309Y328432D01*
X448309Y331968D01*
X449663Y335236D01*
X452164Y337737D01*
X455432Y339091D01*
X458968Y339091D01*
X462236Y337737D01*
X464737Y335236D01*
X466091Y331968D01*
X466091Y328432D01*
X465673Y327422D01*
X465646Y327308D01*
X465617Y327195D01*
X465618Y327189D01*
X465616Y327183D01*
X465627Y327066D01*
X465636Y326950D01*
X465639Y326944D01*
X465639Y326938D01*
X465687Y326830D01*
X465733Y326723D01*
X465737Y326718D01*
X465739Y326713D01*
X465752Y326699D01*
X465838Y326592D01*
X493375Y299055D01*
X493449Y299002D01*
X493519Y298942D01*
X493549Y298930D01*
X493575Y298911D01*
X493662Y298884D01*
X493747Y298850D01*
X493788Y298846D01*
X493810Y298839D01*
X493842Y298840D01*
X493914Y298832D01*
X588848Y298832D01*
X600457Y287223D01*
X600457Y179502D01*
X506298Y85343D01*
X475601Y85343D01*
X475486Y85324D01*
X475370Y85307D01*
X475364Y85305D01*
X475358Y85304D01*
X475255Y85249D01*
X475151Y85196D01*
X475146Y85191D01*
X475141Y85188D01*
X475061Y85104D01*
X474978Y85020D01*
X474975Y85014D01*
X474971Y85010D01*
X474964Y84993D01*
X474898Y84873D01*
X473744Y82089D01*
X470361Y78706D01*
X465942Y76875D01*
X461158Y76875D01*
G37*
%LPD*%
%LPC*%
G36*
X48408Y76875D02*
X48408Y76875D01*
X43989Y78706D01*
X40606Y82089D01*
X38775Y86508D01*
X38775Y91292D01*
X39929Y94077D01*
X39955Y94190D01*
X39984Y94304D01*
X39984Y94310D01*
X39985Y94316D01*
X39974Y94433D01*
X39965Y94549D01*
X39962Y94555D01*
X39962Y94561D01*
X39914Y94669D01*
X39869Y94775D01*
X39864Y94781D01*
X39862Y94786D01*
X39849Y94800D01*
X39764Y94906D01*
X21843Y112827D01*
X21843Y280873D01*
X67562Y326592D01*
X67631Y326687D01*
X67700Y326781D01*
X67702Y326787D01*
X67706Y326792D01*
X67740Y326904D01*
X67777Y327015D01*
X67776Y327021D01*
X67778Y327027D01*
X67775Y327144D01*
X67774Y327261D01*
X67772Y327268D01*
X67772Y327273D01*
X67766Y327290D01*
X67727Y327422D01*
X67309Y328432D01*
X67309Y331968D01*
X68663Y335236D01*
X71164Y337737D01*
X74432Y339091D01*
X77968Y339091D01*
X81236Y337737D01*
X83737Y335236D01*
X85091Y331968D01*
X85091Y328432D01*
X83737Y325164D01*
X81236Y322663D01*
X77968Y321309D01*
X74432Y321309D01*
X73422Y321727D01*
X73308Y321754D01*
X73195Y321783D01*
X73189Y321782D01*
X73183Y321784D01*
X73066Y321773D01*
X72950Y321764D01*
X72944Y321761D01*
X72938Y321761D01*
X72830Y321713D01*
X72723Y321667D01*
X72718Y321663D01*
X72713Y321661D01*
X72699Y321648D01*
X72592Y321562D01*
X29180Y278150D01*
X29127Y278076D01*
X29067Y278006D01*
X29055Y277976D01*
X29036Y277950D01*
X29009Y277863D01*
X28975Y277778D01*
X28971Y277737D01*
X28964Y277715D01*
X28965Y277683D01*
X28957Y277611D01*
X28957Y116089D01*
X28971Y115998D01*
X28979Y115908D01*
X28991Y115878D01*
X28996Y115846D01*
X29039Y115765D01*
X29075Y115681D01*
X29101Y115649D01*
X29112Y115628D01*
X29135Y115606D01*
X29180Y115550D01*
X44794Y99936D01*
X44888Y99869D01*
X44982Y99798D01*
X44988Y99796D01*
X44993Y99793D01*
X45104Y99759D01*
X45216Y99722D01*
X45223Y99722D01*
X45229Y99720D01*
X45345Y99723D01*
X45462Y99724D01*
X45469Y99727D01*
X45474Y99727D01*
X45492Y99733D01*
X45623Y99771D01*
X48408Y100925D01*
X53192Y100925D01*
X57611Y99094D01*
X60994Y95711D01*
X62825Y91292D01*
X62825Y86508D01*
X60994Y82089D01*
X57611Y78706D01*
X53192Y76875D01*
X48408Y76875D01*
G37*
%LPD*%
%LPC*%
G36*
X397141Y-162053D02*
X397141Y-162053D01*
X384047Y-148959D01*
X384047Y-130441D01*
X397141Y-117347D01*
X415659Y-117347D01*
X428753Y-130441D01*
X428753Y-148959D01*
X415659Y-162053D01*
X397141Y-162053D01*
G37*
%LPD*%
%LPC*%
G36*
X255972Y-53531D02*
X255972Y-53531D01*
X255079Y-52638D01*
X255079Y-23562D01*
X255972Y-22669D01*
X285048Y-22669D01*
X285941Y-23562D01*
X285941Y-52638D01*
X285048Y-53531D01*
X255972Y-53531D01*
G37*
%LPD*%
%LPC*%
G36*
X314431Y-53531D02*
X314431Y-53531D01*
X308759Y-51182D01*
X304418Y-46841D01*
X302069Y-41169D01*
X302069Y-35031D01*
X304418Y-29359D01*
X308759Y-25018D01*
X314431Y-22669D01*
X320569Y-22669D01*
X326241Y-25018D01*
X330582Y-29359D01*
X332931Y-35031D01*
X332931Y-41169D01*
X330582Y-46841D01*
X326241Y-51182D01*
X320569Y-53531D01*
X314431Y-53531D01*
G37*
%LPD*%
%LPC*%
G36*
X361421Y-53531D02*
X361421Y-53531D01*
X355749Y-51182D01*
X351408Y-46841D01*
X349059Y-41169D01*
X349059Y-35031D01*
X351408Y-29359D01*
X355749Y-25018D01*
X361421Y-22669D01*
X367559Y-22669D01*
X373231Y-25018D01*
X377572Y-29359D01*
X379921Y-35031D01*
X379921Y-41169D01*
X377572Y-46841D01*
X373231Y-51182D01*
X367559Y-53531D01*
X361421Y-53531D01*
G37*
%LPD*%
%LPC*%
G36*
X575256Y110859D02*
X575256Y110859D01*
X570463Y112845D01*
X566795Y116513D01*
X564809Y121306D01*
X564809Y126494D01*
X566795Y131287D01*
X570463Y134955D01*
X575256Y136941D01*
X580444Y136941D01*
X585237Y134955D01*
X588905Y131287D01*
X590891Y126494D01*
X590891Y121306D01*
X588905Y116513D01*
X585237Y112845D01*
X580444Y110859D01*
X575256Y110859D01*
G37*
%LPD*%
%LPC*%
G36*
X48408Y216575D02*
X48408Y216575D01*
X43989Y218406D01*
X40606Y221789D01*
X38775Y226208D01*
X38775Y230992D01*
X40606Y235411D01*
X43989Y238794D01*
X48408Y240625D01*
X53192Y240625D01*
X57611Y238794D01*
X60994Y235411D01*
X62825Y230992D01*
X62825Y226208D01*
X60994Y221789D01*
X57611Y218406D01*
X53192Y216575D01*
X48408Y216575D01*
G37*
%LPD*%
%LPC*%
G36*
X461158Y216575D02*
X461158Y216575D01*
X456739Y218406D01*
X453356Y221789D01*
X451525Y226208D01*
X451525Y230992D01*
X453356Y235411D01*
X456739Y238794D01*
X461158Y240625D01*
X465942Y240625D01*
X470361Y238794D01*
X473744Y235411D01*
X475575Y230992D01*
X475575Y226208D01*
X473744Y221789D01*
X470361Y218406D01*
X465942Y216575D01*
X461158Y216575D01*
G37*
%LPD*%
%LPC*%
G36*
X162708Y216575D02*
X162708Y216575D01*
X158289Y218406D01*
X154906Y221789D01*
X153075Y226208D01*
X153075Y230992D01*
X154906Y235411D01*
X158289Y238794D01*
X162708Y240625D01*
X167492Y240625D01*
X171911Y238794D01*
X175294Y235411D01*
X177125Y230992D01*
X177125Y226208D01*
X175294Y221789D01*
X171911Y218406D01*
X167492Y216575D01*
X162708Y216575D01*
G37*
%LPD*%
%LPC*%
G36*
X162708Y76875D02*
X162708Y76875D01*
X158289Y78706D01*
X154906Y82089D01*
X153075Y86508D01*
X153075Y91292D01*
X154906Y95711D01*
X158289Y99094D01*
X162708Y100925D01*
X167492Y100925D01*
X171911Y99094D01*
X175294Y95711D01*
X177125Y91292D01*
X177125Y86508D01*
X175294Y82089D01*
X171911Y78706D01*
X167492Y76875D01*
X162708Y76875D01*
G37*
%LPD*%
%LPC*%
G36*
X575458Y216575D02*
X575458Y216575D01*
X571039Y218406D01*
X567656Y221789D01*
X565825Y226208D01*
X565825Y230992D01*
X567656Y235411D01*
X571039Y238794D01*
X575458Y240625D01*
X580242Y240625D01*
X584661Y238794D01*
X588044Y235411D01*
X589875Y230992D01*
X589875Y226208D01*
X588044Y221789D01*
X584661Y218406D01*
X580242Y216575D01*
X575458Y216575D01*
G37*
%LPD*%
%LPC*%
G36*
X575458Y-62825D02*
X575458Y-62825D01*
X571039Y-60994D01*
X567656Y-57611D01*
X565825Y-53192D01*
X565825Y-48408D01*
X567656Y-43989D01*
X571039Y-40606D01*
X575458Y-38775D01*
X580242Y-38775D01*
X584661Y-40606D01*
X588044Y-43989D01*
X589875Y-48408D01*
X589875Y-53192D01*
X588044Y-57611D01*
X584661Y-60994D01*
X580242Y-62825D01*
X575458Y-62825D01*
G37*
%LPD*%
%LPC*%
G36*
X461158Y-62825D02*
X461158Y-62825D01*
X456739Y-60994D01*
X453356Y-57611D01*
X451525Y-53192D01*
X451525Y-48408D01*
X453356Y-43989D01*
X456739Y-40606D01*
X461158Y-38775D01*
X465942Y-38775D01*
X470361Y-40606D01*
X473744Y-43989D01*
X475575Y-48408D01*
X475575Y-53192D01*
X473744Y-57611D01*
X470361Y-60994D01*
X465942Y-62825D01*
X461158Y-62825D01*
G37*
%LPD*%
%LPC*%
G36*
X162708Y-62825D02*
X162708Y-62825D01*
X158289Y-60994D01*
X154906Y-57611D01*
X153075Y-53192D01*
X153075Y-48408D01*
X154906Y-43989D01*
X158289Y-40606D01*
X162708Y-38775D01*
X167492Y-38775D01*
X171911Y-40606D01*
X175294Y-43989D01*
X177125Y-48408D01*
X177125Y-53192D01*
X175294Y-57611D01*
X171911Y-60994D01*
X167492Y-62825D01*
X162708Y-62825D01*
G37*
%LPD*%
%LPC*%
G36*
X48408Y-62825D02*
X48408Y-62825D01*
X43989Y-60994D01*
X40606Y-57611D01*
X38775Y-53192D01*
X38775Y-48408D01*
X40606Y-43989D01*
X43989Y-40606D01*
X48408Y-38775D01*
X53192Y-38775D01*
X57611Y-40606D01*
X60994Y-43989D01*
X62825Y-48408D01*
X62825Y-53192D01*
X60994Y-57611D01*
X57611Y-60994D01*
X53192Y-62825D01*
X48408Y-62825D01*
G37*
%LPD*%
%LPC*%
G36*
X230123Y-163069D02*
X230123Y-163069D01*
X230123Y-141223D01*
X251969Y-141223D01*
X251969Y-149380D01*
X238280Y-163069D01*
X230123Y-163069D01*
G37*
%LPD*%
%LPC*%
G36*
X230123Y-138177D02*
X230123Y-138177D01*
X230123Y-116331D01*
X238280Y-116331D01*
X251969Y-130020D01*
X251969Y-138177D01*
X230123Y-138177D01*
G37*
%LPD*%
%LPC*%
G36*
X218920Y-163069D02*
X218920Y-163069D01*
X205231Y-149380D01*
X205231Y-141223D01*
X227077Y-141223D01*
X227077Y-163069D01*
X218920Y-163069D01*
G37*
%LPD*%
%LPC*%
G36*
X205231Y-138177D02*
X205231Y-138177D01*
X205231Y-130020D01*
X218920Y-116331D01*
X227077Y-116331D01*
X227077Y-138177D01*
X205231Y-138177D01*
G37*
%LPD*%
%LPC*%
G36*
X364196Y256793D02*
X364196Y256793D01*
X358393Y262596D01*
X358393Y270804D01*
X364196Y276607D01*
X372404Y276607D01*
X378207Y270804D01*
X378207Y262596D01*
X372404Y256793D01*
X364196Y256793D01*
G37*
%LPD*%
%LPC*%
G36*
X327366Y256793D02*
X327366Y256793D01*
X321563Y262596D01*
X321563Y270804D01*
X327366Y276607D01*
X335574Y276607D01*
X341377Y270804D01*
X341377Y262596D01*
X335574Y256793D01*
X327366Y256793D01*
G37*
%LPD*%
%LPC*%
G36*
X342306Y-139315D02*
X342306Y-139315D01*
X338713Y-137827D01*
X335963Y-135077D01*
X334475Y-131484D01*
X334475Y-127596D01*
X335963Y-124003D01*
X338713Y-121253D01*
X342306Y-119765D01*
X346194Y-119765D01*
X349787Y-121253D01*
X352537Y-124003D01*
X354025Y-127596D01*
X354025Y-131484D01*
X352537Y-135077D01*
X349787Y-137827D01*
X346194Y-139315D01*
X342306Y-139315D01*
G37*
%LPD*%
%LPC*%
G36*
X252232Y473709D02*
X252232Y473709D01*
X248964Y475063D01*
X246463Y477564D01*
X245109Y480832D01*
X245109Y484368D01*
X246463Y487636D01*
X248964Y490137D01*
X252232Y491491D01*
X255768Y491491D01*
X259036Y490137D01*
X261537Y487636D01*
X262891Y484368D01*
X262891Y480832D01*
X261537Y477564D01*
X259036Y475063D01*
X255768Y473709D01*
X252232Y473709D01*
G37*
%LPD*%
%LPC*%
G36*
X353832Y473709D02*
X353832Y473709D01*
X350564Y475063D01*
X348063Y477564D01*
X346709Y480832D01*
X346709Y484368D01*
X348063Y487636D01*
X350564Y490137D01*
X353832Y491491D01*
X357368Y491491D01*
X360636Y490137D01*
X363137Y487636D01*
X364491Y484368D01*
X364491Y480832D01*
X363137Y477564D01*
X360636Y475063D01*
X357368Y473709D01*
X353832Y473709D01*
G37*
%LPD*%
%LPC*%
G36*
X328432Y473709D02*
X328432Y473709D01*
X325164Y475063D01*
X322663Y477564D01*
X321309Y480832D01*
X321309Y484368D01*
X322663Y487636D01*
X325164Y490137D01*
X328432Y491491D01*
X331968Y491491D01*
X335236Y490137D01*
X337737Y487636D01*
X339091Y484368D01*
X339091Y480832D01*
X337737Y477564D01*
X335236Y475063D01*
X331968Y473709D01*
X328432Y473709D01*
G37*
%LPD*%
%LPC*%
G36*
X557032Y473709D02*
X557032Y473709D01*
X553764Y475063D01*
X551263Y477564D01*
X549909Y480832D01*
X549909Y484368D01*
X551263Y487636D01*
X553764Y490137D01*
X557032Y491491D01*
X560568Y491491D01*
X563836Y490137D01*
X566337Y487636D01*
X567691Y484368D01*
X567691Y480832D01*
X566337Y477564D01*
X563836Y475063D01*
X560568Y473709D01*
X557032Y473709D01*
G37*
%LPD*%
%LPC*%
G36*
X506232Y473709D02*
X506232Y473709D01*
X502964Y475063D01*
X500463Y477564D01*
X499109Y480832D01*
X499109Y484368D01*
X500463Y487636D01*
X502964Y490137D01*
X506232Y491491D01*
X509768Y491491D01*
X513036Y490137D01*
X515537Y487636D01*
X516891Y484368D01*
X516891Y480832D01*
X515537Y477564D01*
X513036Y475063D01*
X509768Y473709D01*
X506232Y473709D01*
G37*
%LPD*%
%LPC*%
G36*
X201432Y473709D02*
X201432Y473709D01*
X198164Y475063D01*
X195663Y477564D01*
X194309Y480832D01*
X194309Y484368D01*
X195663Y487636D01*
X198164Y490137D01*
X201432Y491491D01*
X204968Y491491D01*
X208236Y490137D01*
X210737Y487636D01*
X212091Y484368D01*
X212091Y480832D01*
X210737Y477564D01*
X208236Y475063D01*
X204968Y473709D01*
X201432Y473709D01*
G37*
%LPD*%
%LPC*%
G36*
X480832Y473709D02*
X480832Y473709D01*
X477564Y475063D01*
X475063Y477564D01*
X473709Y480832D01*
X473709Y484368D01*
X475063Y487636D01*
X477564Y490137D01*
X480832Y491491D01*
X484368Y491491D01*
X487636Y490137D01*
X490137Y487636D01*
X491491Y484368D01*
X491491Y480832D01*
X490137Y477564D01*
X487636Y475063D01*
X484368Y473709D01*
X480832Y473709D01*
G37*
%LPD*%
%LPC*%
G36*
X99832Y473709D02*
X99832Y473709D01*
X96564Y475063D01*
X94063Y477564D01*
X92709Y480832D01*
X92709Y484368D01*
X94063Y487636D01*
X96564Y490137D01*
X99832Y491491D01*
X103368Y491491D01*
X106636Y490137D01*
X109137Y487636D01*
X110491Y484368D01*
X110491Y480832D01*
X109137Y477564D01*
X106636Y475063D01*
X103368Y473709D01*
X99832Y473709D01*
G37*
%LPD*%
%LPC*%
G36*
X74432Y473709D02*
X74432Y473709D01*
X71164Y475063D01*
X68663Y477564D01*
X67309Y480832D01*
X67309Y484368D01*
X68663Y487636D01*
X71164Y490137D01*
X74432Y491491D01*
X77968Y491491D01*
X81236Y490137D01*
X83737Y487636D01*
X85091Y484368D01*
X85091Y480832D01*
X83737Y477564D01*
X81236Y475063D01*
X77968Y473709D01*
X74432Y473709D01*
G37*
%LPD*%
%LPC*%
G36*
X49032Y473709D02*
X49032Y473709D01*
X45764Y475063D01*
X43263Y477564D01*
X41909Y480832D01*
X41909Y484368D01*
X43263Y487636D01*
X45764Y490137D01*
X49032Y491491D01*
X52568Y491491D01*
X55836Y490137D01*
X58337Y487636D01*
X59691Y484368D01*
X59691Y480832D01*
X58337Y477564D01*
X55836Y475063D01*
X52568Y473709D01*
X49032Y473709D01*
G37*
%LPD*%
%LPC*%
G36*
X23632Y473709D02*
X23632Y473709D01*
X20364Y475063D01*
X17863Y477564D01*
X16509Y480832D01*
X16509Y484368D01*
X17863Y487636D01*
X20364Y490137D01*
X23632Y491491D01*
X27168Y491491D01*
X30436Y490137D01*
X32937Y487636D01*
X34291Y484368D01*
X34291Y480832D01*
X32937Y477564D01*
X30436Y475063D01*
X27168Y473709D01*
X23632Y473709D01*
G37*
%LPD*%
%LPC*%
G36*
X531632Y473709D02*
X531632Y473709D01*
X528364Y475063D01*
X525863Y477564D01*
X524509Y480832D01*
X524509Y484368D01*
X525863Y487636D01*
X528364Y490137D01*
X531632Y491491D01*
X535168Y491491D01*
X538436Y490137D01*
X540937Y487636D01*
X542291Y484368D01*
X542291Y480832D01*
X540937Y477564D01*
X538436Y475063D01*
X535168Y473709D01*
X531632Y473709D01*
G37*
%LPD*%
%LPC*%
G36*
X303032Y473709D02*
X303032Y473709D01*
X299764Y475063D01*
X297263Y477564D01*
X295909Y480832D01*
X295909Y484368D01*
X297263Y487636D01*
X299764Y490137D01*
X303032Y491491D01*
X306568Y491491D01*
X309836Y490137D01*
X312337Y487636D01*
X313691Y484368D01*
X313691Y480832D01*
X312337Y477564D01*
X309836Y475063D01*
X306568Y473709D01*
X303032Y473709D01*
G37*
%LPD*%
%LPC*%
G36*
X353832Y321309D02*
X353832Y321309D01*
X350564Y322663D01*
X348063Y325164D01*
X346709Y328432D01*
X346709Y331968D01*
X348063Y335236D01*
X350564Y337737D01*
X353832Y339091D01*
X357368Y339091D01*
X360636Y337737D01*
X363137Y335236D01*
X364491Y331968D01*
X364491Y328432D01*
X363137Y325164D01*
X360636Y322663D01*
X357368Y321309D01*
X353832Y321309D01*
G37*
%LPD*%
%LPC*%
G36*
X328432Y321309D02*
X328432Y321309D01*
X325164Y322663D01*
X322663Y325164D01*
X321309Y328432D01*
X321309Y331968D01*
X322663Y335236D01*
X325164Y337737D01*
X328432Y339091D01*
X331968Y339091D01*
X335236Y337737D01*
X337737Y335236D01*
X339091Y331968D01*
X339091Y328432D01*
X337737Y325164D01*
X335236Y322663D01*
X331968Y321309D01*
X328432Y321309D01*
G37*
%LPD*%
%LPC*%
G36*
X506232Y321309D02*
X506232Y321309D01*
X502964Y322663D01*
X500463Y325164D01*
X499109Y328432D01*
X499109Y331968D01*
X500463Y335236D01*
X502964Y337737D01*
X506232Y339091D01*
X509768Y339091D01*
X513036Y337737D01*
X515537Y335236D01*
X516891Y331968D01*
X516891Y328432D01*
X515537Y325164D01*
X513036Y322663D01*
X509768Y321309D01*
X506232Y321309D01*
G37*
%LPD*%
%LPC*%
G36*
X176032Y321309D02*
X176032Y321309D01*
X172764Y322663D01*
X170263Y325164D01*
X168909Y328432D01*
X168909Y331968D01*
X170263Y335236D01*
X172764Y337737D01*
X176032Y339091D01*
X179568Y339091D01*
X182836Y337737D01*
X185337Y335236D01*
X186691Y331968D01*
X186691Y328432D01*
X185337Y325164D01*
X182836Y322663D01*
X179568Y321309D01*
X176032Y321309D01*
G37*
%LPD*%
%LPC*%
G36*
X150632Y321309D02*
X150632Y321309D01*
X147364Y322663D01*
X144863Y325164D01*
X143509Y328432D01*
X143509Y331968D01*
X144863Y335236D01*
X147364Y337737D01*
X150632Y339091D01*
X154168Y339091D01*
X157436Y337737D01*
X159937Y335236D01*
X161291Y331968D01*
X161291Y328432D01*
X159937Y325164D01*
X157436Y322663D01*
X154168Y321309D01*
X150632Y321309D01*
G37*
%LPD*%
%LPC*%
G36*
X125232Y321309D02*
X125232Y321309D01*
X121964Y322663D01*
X119463Y325164D01*
X118109Y328432D01*
X118109Y331968D01*
X119463Y335236D01*
X121964Y337737D01*
X125232Y339091D01*
X128768Y339091D01*
X132036Y337737D01*
X134537Y335236D01*
X135891Y331968D01*
X135891Y328432D01*
X134537Y325164D01*
X132036Y322663D01*
X128768Y321309D01*
X125232Y321309D01*
G37*
%LPD*%
%LPC*%
G36*
X49032Y321309D02*
X49032Y321309D01*
X45764Y322663D01*
X43263Y325164D01*
X41909Y328432D01*
X41909Y331968D01*
X43263Y335236D01*
X45764Y337737D01*
X49032Y339091D01*
X52568Y339091D01*
X55836Y337737D01*
X58337Y335236D01*
X59691Y331968D01*
X59691Y328432D01*
X58337Y325164D01*
X55836Y322663D01*
X52568Y321309D01*
X49032Y321309D01*
G37*
%LPD*%
%LPC*%
G36*
X99832Y321309D02*
X99832Y321309D01*
X96564Y322663D01*
X94063Y325164D01*
X92709Y328432D01*
X92709Y331968D01*
X94063Y335236D01*
X96564Y337737D01*
X99832Y339091D01*
X103368Y339091D01*
X106636Y337737D01*
X109137Y335236D01*
X110491Y331968D01*
X110491Y328432D01*
X109137Y325164D01*
X106636Y322663D01*
X103368Y321309D01*
X99832Y321309D01*
G37*
%LPD*%
%LPC*%
G36*
X379232Y321309D02*
X379232Y321309D01*
X375964Y322663D01*
X373463Y325164D01*
X372109Y328432D01*
X372109Y331968D01*
X373463Y335236D01*
X375964Y337737D01*
X379232Y339091D01*
X382768Y339091D01*
X386036Y337737D01*
X388537Y335236D01*
X389891Y331968D01*
X389891Y328432D01*
X388537Y325164D01*
X386036Y322663D01*
X382768Y321309D01*
X379232Y321309D01*
G37*
%LPD*%
%LPC*%
G36*
X582432Y473709D02*
X582432Y473709D01*
X579164Y475063D01*
X576663Y477564D01*
X575309Y480832D01*
X575309Y484368D01*
X576663Y487636D01*
X579164Y490137D01*
X582432Y491491D01*
X585968Y491491D01*
X589236Y490137D01*
X591737Y487636D01*
X593091Y484368D01*
X593091Y480832D01*
X591737Y477564D01*
X589236Y475063D01*
X585968Y473709D01*
X582432Y473709D01*
G37*
%LPD*%
%LPC*%
G36*
X557032Y321309D02*
X557032Y321309D01*
X553764Y322663D01*
X551263Y325164D01*
X549909Y328432D01*
X549909Y331968D01*
X551263Y335236D01*
X553764Y337737D01*
X557032Y339091D01*
X560568Y339091D01*
X563836Y337737D01*
X566337Y335236D01*
X567691Y331968D01*
X567691Y328432D01*
X566337Y325164D01*
X563836Y322663D01*
X560568Y321309D01*
X557032Y321309D01*
G37*
%LPD*%
%LPC*%
G36*
X607832Y321309D02*
X607832Y321309D01*
X604564Y322663D01*
X602063Y325164D01*
X600709Y328432D01*
X600709Y331968D01*
X602063Y335236D01*
X604564Y337737D01*
X607832Y339091D01*
X611368Y339091D01*
X614636Y337737D01*
X617137Y335236D01*
X618491Y331968D01*
X618491Y328432D01*
X617137Y325164D01*
X614636Y322663D01*
X611368Y321309D01*
X607832Y321309D01*
G37*
%LPD*%
%LPC*%
G36*
X201432Y321309D02*
X201432Y321309D01*
X198164Y322663D01*
X195663Y325164D01*
X194309Y328432D01*
X194309Y331968D01*
X195663Y335236D01*
X198164Y337737D01*
X201432Y339091D01*
X204968Y339091D01*
X208236Y337737D01*
X210737Y335236D01*
X212091Y331968D01*
X212091Y328432D01*
X210737Y325164D01*
X208236Y322663D01*
X204968Y321309D01*
X201432Y321309D01*
G37*
%LPD*%
%LPC*%
G36*
X226832Y321309D02*
X226832Y321309D01*
X223564Y322663D01*
X221063Y325164D01*
X219709Y328432D01*
X219709Y331968D01*
X221063Y335236D01*
X223564Y337737D01*
X226832Y339091D01*
X230368Y339091D01*
X233636Y337737D01*
X236137Y335236D01*
X237491Y331968D01*
X237491Y328432D01*
X236137Y325164D01*
X233636Y322663D01*
X230368Y321309D01*
X226832Y321309D01*
G37*
%LPD*%
%LPC*%
G36*
X303032Y321309D02*
X303032Y321309D01*
X299764Y322663D01*
X297263Y325164D01*
X295909Y328432D01*
X295909Y331968D01*
X297263Y335236D01*
X299764Y337737D01*
X303032Y339091D01*
X306568Y339091D01*
X309836Y337737D01*
X312337Y335236D01*
X313691Y331968D01*
X313691Y328432D01*
X312337Y325164D01*
X309836Y322663D01*
X306568Y321309D01*
X303032Y321309D01*
G37*
%LPD*%
%LPC*%
G36*
X277632Y321309D02*
X277632Y321309D01*
X274364Y322663D01*
X271863Y325164D01*
X270509Y328432D01*
X270509Y331968D01*
X271863Y335236D01*
X274364Y337737D01*
X277632Y339091D01*
X281168Y339091D01*
X284436Y337737D01*
X286937Y335236D01*
X288291Y331968D01*
X288291Y328432D01*
X286937Y325164D01*
X284436Y322663D01*
X281168Y321309D01*
X277632Y321309D01*
G37*
%LPD*%
%LPC*%
G36*
X430032Y321309D02*
X430032Y321309D01*
X426764Y322663D01*
X424263Y325164D01*
X422909Y328432D01*
X422909Y331968D01*
X424263Y335236D01*
X426764Y337737D01*
X430032Y339091D01*
X433568Y339091D01*
X436836Y337737D01*
X439337Y335236D01*
X440691Y331968D01*
X440691Y328432D01*
X439337Y325164D01*
X436836Y322663D01*
X433568Y321309D01*
X430032Y321309D01*
G37*
%LPD*%
%LPC*%
G36*
X404632Y321309D02*
X404632Y321309D01*
X401364Y322663D01*
X398863Y325164D01*
X397509Y328432D01*
X397509Y331968D01*
X398863Y335236D01*
X401364Y337737D01*
X404632Y339091D01*
X408168Y339091D01*
X411436Y337737D01*
X413937Y335236D01*
X415291Y331968D01*
X415291Y328432D01*
X413937Y325164D01*
X411436Y322663D01*
X408168Y321309D01*
X404632Y321309D01*
G37*
%LPD*%
%LPC*%
G36*
X480832Y346709D02*
X480832Y346709D01*
X477564Y348063D01*
X475063Y350564D01*
X473709Y353832D01*
X473709Y357368D01*
X475063Y360636D01*
X477564Y363137D01*
X480832Y364491D01*
X484368Y364491D01*
X487636Y363137D01*
X490137Y360636D01*
X491491Y357368D01*
X491491Y353832D01*
X490137Y350564D01*
X487636Y348063D01*
X484368Y346709D01*
X480832Y346709D01*
G37*
%LPD*%
%LPC*%
G36*
X506232Y346709D02*
X506232Y346709D01*
X502964Y348063D01*
X500463Y350564D01*
X499109Y353832D01*
X499109Y357368D01*
X500463Y360636D01*
X502964Y363137D01*
X506232Y364491D01*
X509768Y364491D01*
X513036Y363137D01*
X515537Y360636D01*
X516891Y357368D01*
X516891Y353832D01*
X515537Y350564D01*
X513036Y348063D01*
X509768Y346709D01*
X506232Y346709D01*
G37*
%LPD*%
%LPC*%
G36*
X455432Y473709D02*
X455432Y473709D01*
X452164Y475063D01*
X449663Y477564D01*
X448309Y480832D01*
X448309Y484368D01*
X449663Y487636D01*
X452164Y490137D01*
X455432Y491491D01*
X458968Y491491D01*
X462236Y490137D01*
X464737Y487636D01*
X466091Y484368D01*
X466091Y480832D01*
X464737Y477564D01*
X462236Y475063D01*
X458968Y473709D01*
X455432Y473709D01*
G37*
%LPD*%
%LPC*%
G36*
X531632Y346709D02*
X531632Y346709D01*
X528364Y348063D01*
X525863Y350564D01*
X524509Y353832D01*
X524509Y357368D01*
X525863Y360636D01*
X528364Y363137D01*
X531632Y364491D01*
X535168Y364491D01*
X538436Y363137D01*
X540937Y360636D01*
X542291Y357368D01*
X542291Y353832D01*
X540937Y350564D01*
X538436Y348063D01*
X535168Y346709D01*
X531632Y346709D01*
G37*
%LPD*%
%LPC*%
G36*
X430032Y473709D02*
X430032Y473709D01*
X426764Y475063D01*
X424263Y477564D01*
X422909Y480832D01*
X422909Y484368D01*
X424263Y487636D01*
X426764Y490137D01*
X430032Y491491D01*
X433568Y491491D01*
X436836Y490137D01*
X439337Y487636D01*
X440691Y484368D01*
X440691Y480832D01*
X439337Y477564D01*
X436836Y475063D01*
X433568Y473709D01*
X430032Y473709D01*
G37*
%LPD*%
%LPC*%
G36*
X125232Y473709D02*
X125232Y473709D01*
X121964Y475063D01*
X119463Y477564D01*
X118109Y480832D01*
X118109Y484368D01*
X119463Y487636D01*
X121964Y490137D01*
X125232Y491491D01*
X128768Y491491D01*
X132036Y490137D01*
X134537Y487636D01*
X135891Y484368D01*
X135891Y480832D01*
X134537Y477564D01*
X132036Y475063D01*
X128768Y473709D01*
X125232Y473709D01*
G37*
%LPD*%
%LPC*%
G36*
X582432Y346709D02*
X582432Y346709D01*
X579164Y348063D01*
X576663Y350564D01*
X575309Y353832D01*
X575309Y357368D01*
X576663Y360636D01*
X579164Y363137D01*
X582432Y364491D01*
X585968Y364491D01*
X589236Y363137D01*
X591737Y360636D01*
X593091Y357368D01*
X593091Y353832D01*
X591737Y350564D01*
X589236Y348063D01*
X585968Y346709D01*
X582432Y346709D01*
G37*
%LPD*%
%LPC*%
G36*
X379232Y473709D02*
X379232Y473709D01*
X375964Y475063D01*
X373463Y477564D01*
X372109Y480832D01*
X372109Y484368D01*
X373463Y487636D01*
X375964Y490137D01*
X379232Y491491D01*
X382768Y491491D01*
X386036Y490137D01*
X388537Y487636D01*
X389891Y484368D01*
X389891Y480832D01*
X388537Y477564D01*
X386036Y475063D01*
X382768Y473709D01*
X379232Y473709D01*
G37*
%LPD*%
%LPC*%
G36*
X531632Y321309D02*
X531632Y321309D01*
X528364Y322663D01*
X525863Y325164D01*
X524509Y328432D01*
X524509Y331968D01*
X525863Y335236D01*
X528364Y337737D01*
X531632Y339091D01*
X535168Y339091D01*
X538436Y337737D01*
X540937Y335236D01*
X542291Y331968D01*
X542291Y328432D01*
X540937Y325164D01*
X538436Y322663D01*
X535168Y321309D01*
X531632Y321309D01*
G37*
%LPD*%
%LPC*%
G36*
X404632Y473709D02*
X404632Y473709D01*
X401364Y475063D01*
X398863Y477564D01*
X397509Y480832D01*
X397509Y484368D01*
X398863Y487636D01*
X401364Y490137D01*
X404632Y491491D01*
X408168Y491491D01*
X411436Y490137D01*
X413937Y487636D01*
X415291Y484368D01*
X415291Y480832D01*
X413937Y477564D01*
X411436Y475063D01*
X408168Y473709D01*
X404632Y473709D01*
G37*
%LPD*%
%LPC*%
G36*
X150632Y473709D02*
X150632Y473709D01*
X147364Y475063D01*
X144863Y477564D01*
X143509Y480832D01*
X143509Y484368D01*
X144863Y487636D01*
X147364Y490137D01*
X150632Y491491D01*
X154168Y491491D01*
X157436Y490137D01*
X159937Y487636D01*
X161291Y484368D01*
X161291Y480832D01*
X159937Y477564D01*
X157436Y475063D01*
X154168Y473709D01*
X150632Y473709D01*
G37*
%LPD*%
%LPC*%
G36*
X176032Y473709D02*
X176032Y473709D01*
X172764Y475063D01*
X170263Y477564D01*
X168909Y480832D01*
X168909Y484368D01*
X170263Y487636D01*
X172764Y490137D01*
X176032Y491491D01*
X179568Y491491D01*
X182836Y490137D01*
X185337Y487636D01*
X186691Y484368D01*
X186691Y480832D01*
X185337Y477564D01*
X182836Y475063D01*
X179568Y473709D01*
X176032Y473709D01*
G37*
%LPD*%
%LPC*%
G36*
X226832Y473709D02*
X226832Y473709D01*
X223564Y475063D01*
X221063Y477564D01*
X219709Y480832D01*
X219709Y484368D01*
X221063Y487636D01*
X223564Y490137D01*
X226832Y491491D01*
X230368Y491491D01*
X233636Y490137D01*
X236137Y487636D01*
X237491Y484368D01*
X237491Y480832D01*
X236137Y477564D01*
X233636Y475063D01*
X230368Y473709D01*
X226832Y473709D01*
G37*
%LPD*%
%LPC*%
G36*
X277632Y473709D02*
X277632Y473709D01*
X274364Y475063D01*
X271863Y477564D01*
X270509Y480832D01*
X270509Y484368D01*
X271863Y487636D01*
X274364Y490137D01*
X277632Y491491D01*
X281168Y491491D01*
X284436Y490137D01*
X286937Y487636D01*
X288291Y484368D01*
X288291Y480832D01*
X286937Y477564D01*
X284436Y475063D01*
X281168Y473709D01*
X277632Y473709D01*
G37*
%LPD*%
%LPC*%
G36*
X23632Y321309D02*
X23632Y321309D01*
X20364Y322663D01*
X17863Y325164D01*
X16509Y328432D01*
X16509Y331968D01*
X17863Y335236D01*
X20364Y337737D01*
X23632Y339091D01*
X27168Y339091D01*
X30436Y337737D01*
X32937Y335236D01*
X34291Y331968D01*
X34291Y328432D01*
X32937Y325164D01*
X30436Y322663D01*
X27168Y321309D01*
X23632Y321309D01*
G37*
%LPD*%
%LPC*%
G36*
X288733Y42671D02*
X288733Y42671D01*
X283971Y47433D01*
X283971Y54167D01*
X288733Y58929D01*
X295467Y58929D01*
X300229Y54167D01*
X300229Y47433D01*
X295467Y42671D01*
X288733Y42671D01*
G37*
%LPD*%
%LPC*%
G36*
X390333Y42671D02*
X390333Y42671D01*
X385571Y47433D01*
X385571Y54167D01*
X390333Y58929D01*
X397067Y58929D01*
X401829Y54167D01*
X401829Y47433D01*
X397067Y42671D01*
X390333Y42671D01*
G37*
%LPD*%
%LPC*%
G36*
X579373Y192077D02*
X579373Y192077D01*
X590891Y192077D01*
X590891Y182766D01*
X590718Y182119D01*
X590471Y181693D01*
X590463Y181670D01*
X590449Y181651D01*
X590420Y181556D01*
X590384Y181463D01*
X590383Y181439D01*
X590376Y181416D01*
X590379Y181316D01*
X590375Y181217D01*
X590382Y181194D01*
X590383Y181170D01*
X590417Y181076D01*
X590434Y181020D01*
X590417Y181024D01*
X590396Y181036D01*
X590299Y181054D01*
X590202Y181078D01*
X590178Y181076D01*
X590154Y181081D01*
X590056Y181067D01*
X589957Y181059D01*
X589935Y181049D01*
X589911Y181046D01*
X589757Y180979D01*
X589331Y180732D01*
X588684Y180559D01*
X579373Y180559D01*
X579373Y192077D01*
G37*
%LPD*%
%LPC*%
G36*
X52323Y55423D02*
X52323Y55423D01*
X52323Y66941D01*
X61634Y66941D01*
X62281Y66768D01*
X62860Y66433D01*
X63333Y65960D01*
X63668Y65381D01*
X63841Y64734D01*
X63841Y55423D01*
X52323Y55423D01*
G37*
%LPD*%
%LPC*%
G36*
X166623Y55423D02*
X166623Y55423D01*
X166623Y66941D01*
X175934Y66941D01*
X176581Y66768D01*
X177160Y66433D01*
X177633Y65960D01*
X177968Y65381D01*
X178141Y64734D01*
X178141Y55423D01*
X166623Y55423D01*
G37*
%LPD*%
%LPC*%
G36*
X465073Y55423D02*
X465073Y55423D01*
X465073Y66941D01*
X474384Y66941D01*
X475031Y66768D01*
X475610Y66433D01*
X476083Y65960D01*
X476418Y65381D01*
X476591Y64734D01*
X476591Y55423D01*
X465073Y55423D01*
G37*
%LPD*%
%LPC*%
G36*
X579373Y195123D02*
X579373Y195123D01*
X579373Y206641D01*
X588684Y206641D01*
X589331Y206468D01*
X589910Y206133D01*
X590383Y205660D01*
X590718Y205081D01*
X590891Y204434D01*
X590891Y195123D01*
X579373Y195123D01*
G37*
%LPD*%
%LPC*%
G36*
X465073Y195123D02*
X465073Y195123D01*
X465073Y206641D01*
X474384Y206641D01*
X475031Y206468D01*
X475610Y206133D01*
X476083Y205660D01*
X476418Y205081D01*
X476591Y204434D01*
X476591Y195123D01*
X465073Y195123D01*
G37*
%LPD*%
%LPC*%
G36*
X52323Y195123D02*
X52323Y195123D01*
X52323Y206641D01*
X61634Y206641D01*
X62281Y206468D01*
X62860Y206133D01*
X63333Y205660D01*
X63668Y205081D01*
X63841Y204434D01*
X63841Y195123D01*
X52323Y195123D01*
G37*
%LPD*%
%LPC*%
G36*
X166623Y195123D02*
X166623Y195123D01*
X166623Y206641D01*
X175934Y206641D01*
X176581Y206468D01*
X177160Y206133D01*
X177633Y205660D01*
X177968Y205081D01*
X178141Y204434D01*
X178141Y195123D01*
X166623Y195123D01*
G37*
%LPD*%
%LPC*%
G36*
X579373Y55423D02*
X579373Y55423D01*
X579373Y66941D01*
X588684Y66941D01*
X589331Y66768D01*
X589910Y66433D01*
X590383Y65960D01*
X590718Y65381D01*
X590891Y64734D01*
X590891Y55423D01*
X579373Y55423D01*
G37*
%LPD*%
%LPC*%
G36*
X52323Y-98841D02*
X52323Y-98841D01*
X52323Y-87323D01*
X63841Y-87323D01*
X63841Y-96634D01*
X63668Y-97281D01*
X63333Y-97860D01*
X62860Y-98333D01*
X62281Y-98668D01*
X61634Y-98841D01*
X52323Y-98841D01*
G37*
%LPD*%
%LPC*%
G36*
X579373Y-98841D02*
X579373Y-98841D01*
X579373Y-87323D01*
X590891Y-87323D01*
X590891Y-96634D01*
X590718Y-97281D01*
X590383Y-97860D01*
X589910Y-98333D01*
X589331Y-98668D01*
X588684Y-98841D01*
X579373Y-98841D01*
G37*
%LPD*%
%LPC*%
G36*
X166623Y-98841D02*
X166623Y-98841D01*
X166623Y-87323D01*
X178141Y-87323D01*
X178141Y-96634D01*
X177968Y-97281D01*
X177633Y-97860D01*
X177160Y-98333D01*
X176581Y-98668D01*
X175934Y-98841D01*
X166623Y-98841D01*
G37*
%LPD*%
%LPC*%
G36*
X465073Y-98841D02*
X465073Y-98841D01*
X465073Y-87323D01*
X476591Y-87323D01*
X476591Y-96634D01*
X476418Y-97281D01*
X476083Y-97860D01*
X475610Y-98333D01*
X475031Y-98668D01*
X474384Y-98841D01*
X465073Y-98841D01*
G37*
%LPD*%
%LPC*%
G36*
X465073Y-84277D02*
X465073Y-84277D01*
X465073Y-72759D01*
X474384Y-72759D01*
X475031Y-72932D01*
X475610Y-73267D01*
X476083Y-73740D01*
X476418Y-74319D01*
X476591Y-74966D01*
X476591Y-84277D01*
X465073Y-84277D01*
G37*
%LPD*%
%LPC*%
G36*
X52323Y-84277D02*
X52323Y-84277D01*
X52323Y-72759D01*
X61634Y-72759D01*
X62281Y-72932D01*
X62860Y-73267D01*
X63333Y-73740D01*
X63668Y-74319D01*
X63841Y-74966D01*
X63841Y-84277D01*
X52323Y-84277D01*
G37*
%LPD*%
%LPC*%
G36*
X166623Y-84277D02*
X166623Y-84277D01*
X166623Y-72759D01*
X175934Y-72759D01*
X176581Y-72932D01*
X177160Y-73267D01*
X177633Y-73740D01*
X177968Y-74319D01*
X178141Y-74966D01*
X178141Y-84277D01*
X166623Y-84277D01*
G37*
%LPD*%
%LPC*%
G36*
X579373Y-84277D02*
X579373Y-84277D01*
X579373Y-72759D01*
X588684Y-72759D01*
X589331Y-72932D01*
X589910Y-73267D01*
X590383Y-73740D01*
X590718Y-74319D01*
X590891Y-74966D01*
X590891Y-84277D01*
X579373Y-84277D01*
G37*
%LPD*%
%LPC*%
G36*
X579373Y52377D02*
X579373Y52377D01*
X590891Y52377D01*
X590891Y43066D01*
X590718Y42419D01*
X590383Y41840D01*
X589910Y41367D01*
X589331Y41032D01*
X588684Y40859D01*
X579373Y40859D01*
X579373Y52377D01*
G37*
%LPD*%
%LPC*%
G36*
X166623Y52377D02*
X166623Y52377D01*
X178141Y52377D01*
X178141Y43066D01*
X177968Y42419D01*
X177633Y41840D01*
X177160Y41367D01*
X176581Y41032D01*
X175934Y40859D01*
X166623Y40859D01*
X166623Y52377D01*
G37*
%LPD*%
%LPC*%
G36*
X465073Y52377D02*
X465073Y52377D01*
X476591Y52377D01*
X476591Y43066D01*
X476418Y42419D01*
X476083Y41840D01*
X475610Y41367D01*
X475031Y41032D01*
X474384Y40859D01*
X465073Y40859D01*
X465073Y52377D01*
G37*
%LPD*%
%LPC*%
G36*
X52323Y52377D02*
X52323Y52377D01*
X63841Y52377D01*
X63841Y43066D01*
X63668Y42419D01*
X63333Y41840D01*
X62860Y41367D01*
X62281Y41032D01*
X61634Y40859D01*
X52323Y40859D01*
X52323Y52377D01*
G37*
%LPD*%
%LPC*%
G36*
X465073Y192077D02*
X465073Y192077D01*
X476591Y192077D01*
X476591Y182766D01*
X476418Y182119D01*
X476083Y181540D01*
X475610Y181067D01*
X475031Y180732D01*
X474384Y180559D01*
X465073Y180559D01*
X465073Y192077D01*
G37*
%LPD*%
%LPC*%
G36*
X52323Y192077D02*
X52323Y192077D01*
X63841Y192077D01*
X63841Y182766D01*
X63668Y182119D01*
X63333Y181540D01*
X62860Y181067D01*
X62281Y180732D01*
X61634Y180559D01*
X52323Y180559D01*
X52323Y192077D01*
G37*
%LPD*%
%LPC*%
G36*
X166623Y192077D02*
X166623Y192077D01*
X178141Y192077D01*
X178141Y182766D01*
X177968Y182119D01*
X177633Y181540D01*
X177160Y181067D01*
X176581Y180732D01*
X175934Y180559D01*
X166623Y180559D01*
X166623Y192077D01*
G37*
%LPD*%
%LPC*%
G36*
X37759Y195123D02*
X37759Y195123D01*
X37759Y204434D01*
X37932Y205081D01*
X38267Y205660D01*
X38740Y206133D01*
X39319Y206468D01*
X39966Y206641D01*
X49277Y206641D01*
X49277Y195123D01*
X37759Y195123D01*
G37*
%LPD*%
%LPC*%
G36*
X564809Y195123D02*
X564809Y195123D01*
X564809Y204434D01*
X564982Y205081D01*
X565317Y205660D01*
X565790Y206133D01*
X566369Y206468D01*
X567016Y206641D01*
X576327Y206641D01*
X576327Y195123D01*
X564809Y195123D01*
G37*
%LPD*%
%LPC*%
G36*
X39966Y-98841D02*
X39966Y-98841D01*
X39319Y-98668D01*
X38740Y-98333D01*
X38267Y-97860D01*
X37932Y-97281D01*
X37759Y-96634D01*
X37759Y-87323D01*
X49277Y-87323D01*
X49277Y-98841D01*
X39966Y-98841D01*
G37*
%LPD*%
%LPC*%
G36*
X154266Y-98841D02*
X154266Y-98841D01*
X153619Y-98668D01*
X153040Y-98333D01*
X152567Y-97860D01*
X152232Y-97281D01*
X152059Y-96634D01*
X152059Y-87323D01*
X163577Y-87323D01*
X163577Y-98841D01*
X154266Y-98841D01*
G37*
%LPD*%
%LPC*%
G36*
X452716Y-98841D02*
X452716Y-98841D01*
X452069Y-98668D01*
X451490Y-98333D01*
X451017Y-97860D01*
X450682Y-97281D01*
X450509Y-96634D01*
X450509Y-87323D01*
X462027Y-87323D01*
X462027Y-98841D01*
X452716Y-98841D01*
G37*
%LPD*%
%LPC*%
G36*
X567016Y-98841D02*
X567016Y-98841D01*
X566369Y-98668D01*
X565790Y-98333D01*
X565317Y-97860D01*
X564982Y-97281D01*
X564809Y-96634D01*
X564809Y-87323D01*
X576327Y-87323D01*
X576327Y-98841D01*
X567016Y-98841D01*
G37*
%LPD*%
%LPC*%
G36*
X152059Y195123D02*
X152059Y195123D01*
X152059Y204434D01*
X152232Y205081D01*
X152567Y205660D01*
X153040Y206133D01*
X153619Y206468D01*
X154266Y206641D01*
X163577Y206641D01*
X163577Y195123D01*
X152059Y195123D01*
G37*
%LPD*%
%LPC*%
G36*
X37759Y55423D02*
X37759Y55423D01*
X37759Y64734D01*
X37932Y65381D01*
X38267Y65960D01*
X38740Y66433D01*
X39319Y66768D01*
X39966Y66941D01*
X49277Y66941D01*
X49277Y55423D01*
X37759Y55423D01*
G37*
%LPD*%
%LPC*%
G36*
X450509Y195123D02*
X450509Y195123D01*
X450509Y204434D01*
X450682Y205081D01*
X451017Y205660D01*
X451490Y206133D01*
X452069Y206468D01*
X452716Y206641D01*
X462027Y206641D01*
X462027Y195123D01*
X450509Y195123D01*
G37*
%LPD*%
%LPC*%
G36*
X564809Y55423D02*
X564809Y55423D01*
X564809Y64734D01*
X564982Y65381D01*
X565317Y65960D01*
X565790Y66433D01*
X566369Y66768D01*
X567016Y66941D01*
X576327Y66941D01*
X576327Y55423D01*
X564809Y55423D01*
G37*
%LPD*%
%LPC*%
G36*
X152059Y55423D02*
X152059Y55423D01*
X152059Y64734D01*
X152232Y65381D01*
X152567Y65960D01*
X153040Y66433D01*
X153619Y66768D01*
X154266Y66941D01*
X163577Y66941D01*
X163577Y55423D01*
X152059Y55423D01*
G37*
%LPD*%
%LPC*%
G36*
X450509Y55423D02*
X450509Y55423D01*
X450509Y64734D01*
X450682Y65381D01*
X451017Y65960D01*
X451490Y66433D01*
X452069Y66768D01*
X452716Y66941D01*
X462027Y66941D01*
X462027Y55423D01*
X450509Y55423D01*
G37*
%LPD*%
%LPC*%
G36*
X452716Y180559D02*
X452716Y180559D01*
X452069Y180732D01*
X451490Y181067D01*
X451017Y181540D01*
X450682Y182119D01*
X450509Y182766D01*
X450509Y192077D01*
X462027Y192077D01*
X462027Y180559D01*
X452716Y180559D01*
G37*
%LPD*%
%LPC*%
G36*
X450509Y-84277D02*
X450509Y-84277D01*
X450509Y-74966D01*
X450682Y-74319D01*
X451017Y-73740D01*
X451490Y-73267D01*
X452069Y-72932D01*
X452716Y-72759D01*
X462027Y-72759D01*
X462027Y-84277D01*
X450509Y-84277D01*
G37*
%LPD*%
%LPC*%
G36*
X37759Y-84277D02*
X37759Y-84277D01*
X37759Y-74966D01*
X37932Y-74319D01*
X38267Y-73740D01*
X38740Y-73267D01*
X39319Y-72932D01*
X39966Y-72759D01*
X49277Y-72759D01*
X49277Y-84277D01*
X37759Y-84277D01*
G37*
%LPD*%
%LPC*%
G36*
X564809Y-84277D02*
X564809Y-84277D01*
X564809Y-74966D01*
X564982Y-74319D01*
X565317Y-73740D01*
X565790Y-73267D01*
X566369Y-72932D01*
X567016Y-72759D01*
X576327Y-72759D01*
X576327Y-84277D01*
X564809Y-84277D01*
G37*
%LPD*%
%LPC*%
G36*
X567016Y180559D02*
X567016Y180559D01*
X566369Y180732D01*
X565790Y181067D01*
X565317Y181540D01*
X564982Y182119D01*
X564809Y182766D01*
X564809Y192077D01*
X576327Y192077D01*
X576327Y180559D01*
X567016Y180559D01*
G37*
%LPD*%
%LPC*%
G36*
X154266Y180559D02*
X154266Y180559D01*
X153619Y180732D01*
X153040Y181067D01*
X152567Y181540D01*
X152232Y182119D01*
X152059Y182766D01*
X152059Y192077D01*
X163577Y192077D01*
X163577Y180559D01*
X154266Y180559D01*
G37*
%LPD*%
%LPC*%
G36*
X39966Y180559D02*
X39966Y180559D01*
X39319Y180732D01*
X38740Y181067D01*
X38267Y181540D01*
X37932Y182119D01*
X37759Y182766D01*
X37759Y192077D01*
X49277Y192077D01*
X49277Y180559D01*
X39966Y180559D01*
G37*
%LPD*%
%LPC*%
G36*
X39966Y40859D02*
X39966Y40859D01*
X39319Y41032D01*
X38740Y41367D01*
X38267Y41840D01*
X37932Y42419D01*
X37759Y43066D01*
X37759Y52377D01*
X49277Y52377D01*
X49277Y40859D01*
X39966Y40859D01*
G37*
%LPD*%
%LPC*%
G36*
X152059Y-84277D02*
X152059Y-84277D01*
X152059Y-74966D01*
X152232Y-74319D01*
X152567Y-73740D01*
X153040Y-73267D01*
X153619Y-72932D01*
X154266Y-72759D01*
X163577Y-72759D01*
X163577Y-84277D01*
X152059Y-84277D01*
G37*
%LPD*%
%LPC*%
G36*
X154266Y40859D02*
X154266Y40859D01*
X153619Y41032D01*
X153040Y41367D01*
X152567Y41840D01*
X152232Y42419D01*
X152059Y43066D01*
X152059Y52377D01*
X163577Y52377D01*
X163577Y40859D01*
X154266Y40859D01*
G37*
%LPD*%
%LPC*%
G36*
X452716Y40859D02*
X452716Y40859D01*
X452069Y41032D01*
X451490Y41367D01*
X451017Y41840D01*
X450682Y42419D01*
X450509Y43066D01*
X450509Y52377D01*
X462027Y52377D01*
X462027Y40859D01*
X452716Y40859D01*
G37*
%LPD*%
%LPC*%
G36*
X567016Y40859D02*
X567016Y40859D01*
X566369Y41032D01*
X565790Y41367D01*
X565317Y41840D01*
X564982Y42419D01*
X564809Y43066D01*
X564809Y52377D01*
X576327Y52377D01*
X576327Y40859D01*
X567016Y40859D01*
G37*
%LPD*%
%LPC*%
G36*
X395223Y102209D02*
X395223Y102209D01*
X395223Y112777D01*
X405791Y112777D01*
X405791Y104416D01*
X405618Y103769D01*
X405283Y103190D01*
X404810Y102717D01*
X404231Y102382D01*
X403584Y102209D01*
X395223Y102209D01*
G37*
%LPD*%
%LPC*%
G36*
X383816Y102209D02*
X383816Y102209D01*
X383169Y102382D01*
X382590Y102717D01*
X382117Y103190D01*
X381782Y103769D01*
X381609Y104416D01*
X381609Y112777D01*
X392177Y112777D01*
X392177Y102209D01*
X383816Y102209D01*
G37*
%LPD*%
%LPC*%
G36*
X294973Y-140331D02*
X294973Y-140331D01*
X294973Y-131063D01*
X304241Y-131063D01*
X304241Y-138124D01*
X304068Y-138771D01*
X303733Y-139350D01*
X303260Y-139823D01*
X302681Y-140158D01*
X302034Y-140331D01*
X294973Y-140331D01*
G37*
%LPD*%
%LPC*%
G36*
X294973Y-128017D02*
X294973Y-128017D01*
X294973Y-118749D01*
X302034Y-118749D01*
X302681Y-118922D01*
X303260Y-119257D01*
X303733Y-119730D01*
X304068Y-120309D01*
X304241Y-120956D01*
X304241Y-128017D01*
X294973Y-128017D01*
G37*
%LPD*%
%LPC*%
G36*
X284866Y-140331D02*
X284866Y-140331D01*
X284219Y-140158D01*
X283640Y-139823D01*
X283167Y-139350D01*
X282832Y-138771D01*
X282659Y-138124D01*
X282659Y-131063D01*
X291927Y-131063D01*
X291927Y-140331D01*
X284866Y-140331D01*
G37*
%LPD*%
%LPC*%
G36*
X282659Y-128017D02*
X282659Y-128017D01*
X282659Y-120956D01*
X282832Y-120309D01*
X283167Y-119730D01*
X283640Y-119257D01*
X284219Y-118922D01*
X284866Y-118749D01*
X291927Y-118749D01*
X291927Y-128017D01*
X282659Y-128017D01*
G37*
%LPD*%
%LPC*%
G36*
X395223Y268223D02*
X395223Y268223D01*
X395223Y277623D01*
X398224Y277623D01*
X404623Y271224D01*
X404623Y268223D01*
X395223Y268223D01*
G37*
%LPD*%
%LPC*%
G36*
X382777Y268223D02*
X382777Y268223D01*
X382777Y271224D01*
X389176Y277623D01*
X392177Y277623D01*
X392177Y268223D01*
X382777Y268223D01*
G37*
%LPD*%
%LPC*%
G36*
X395223Y255777D02*
X395223Y255777D01*
X395223Y265177D01*
X404623Y265177D01*
X404623Y262176D01*
X398224Y255777D01*
X395223Y255777D01*
G37*
%LPD*%
%LPC*%
G36*
X389176Y255777D02*
X389176Y255777D01*
X382777Y262176D01*
X382777Y265177D01*
X392177Y265177D01*
X392177Y255777D01*
X389176Y255777D01*
G37*
%LPD*%
%LPC*%
G36*
X611123Y484123D02*
X611123Y484123D01*
X611123Y492389D01*
X611920Y492263D01*
X613403Y491781D01*
X614792Y491073D01*
X616054Y490156D01*
X617156Y489054D01*
X618073Y487792D01*
X618781Y486403D01*
X619263Y484920D01*
X619389Y484123D01*
X611123Y484123D01*
G37*
%LPD*%
%LPC*%
G36*
X255523Y331723D02*
X255523Y331723D01*
X255523Y339989D01*
X256320Y339863D01*
X257803Y339381D01*
X259192Y338673D01*
X260454Y337756D01*
X261556Y336654D01*
X262473Y335392D01*
X263181Y334003D01*
X263663Y332520D01*
X263789Y331723D01*
X255523Y331723D01*
G37*
%LPD*%
%LPC*%
G36*
X585723Y331723D02*
X585723Y331723D01*
X585723Y339989D01*
X586520Y339863D01*
X588003Y339381D01*
X589392Y338673D01*
X590654Y337756D01*
X591756Y336654D01*
X592673Y335392D01*
X593381Y334003D01*
X593863Y332520D01*
X593989Y331723D01*
X585723Y331723D01*
G37*
%LPD*%
%LPC*%
G36*
X244211Y331723D02*
X244211Y331723D01*
X244337Y332520D01*
X244819Y334003D01*
X245527Y335392D01*
X246444Y336654D01*
X247546Y337756D01*
X248808Y338673D01*
X250197Y339381D01*
X251680Y339863D01*
X252477Y339989D01*
X252477Y331723D01*
X244211Y331723D01*
G37*
%LPD*%
%LPC*%
G36*
X574411Y331723D02*
X574411Y331723D01*
X574537Y332520D01*
X575019Y334003D01*
X575727Y335392D01*
X576644Y336654D01*
X577746Y337756D01*
X579008Y338673D01*
X580397Y339381D01*
X581880Y339863D01*
X582677Y339989D01*
X582677Y331723D01*
X574411Y331723D01*
G37*
%LPD*%
%LPC*%
G36*
X585723Y328677D02*
X585723Y328677D01*
X593989Y328677D01*
X593863Y327880D01*
X593381Y326397D01*
X592673Y325008D01*
X591756Y323746D01*
X590654Y322644D01*
X589392Y321727D01*
X588003Y321019D01*
X586520Y320537D01*
X585723Y320411D01*
X585723Y328677D01*
G37*
%LPD*%
%LPC*%
G36*
X611123Y481077D02*
X611123Y481077D01*
X619389Y481077D01*
X619263Y480280D01*
X618781Y478797D01*
X618073Y477408D01*
X617156Y476146D01*
X616054Y475044D01*
X614792Y474127D01*
X613403Y473419D01*
X611920Y472937D01*
X611123Y472811D01*
X611123Y481077D01*
G37*
%LPD*%
%LPC*%
G36*
X599811Y484123D02*
X599811Y484123D01*
X599937Y484920D01*
X600419Y486403D01*
X601127Y487792D01*
X602044Y489054D01*
X603146Y490156D01*
X604408Y491073D01*
X605797Y491781D01*
X607280Y492263D01*
X608077Y492389D01*
X608077Y484123D01*
X599811Y484123D01*
G37*
%LPD*%
%LPC*%
G36*
X255523Y328677D02*
X255523Y328677D01*
X263789Y328677D01*
X263663Y327880D01*
X263181Y326397D01*
X262473Y325008D01*
X261556Y323746D01*
X260454Y322644D01*
X259192Y321727D01*
X257803Y321019D01*
X256320Y320537D01*
X255523Y320411D01*
X255523Y328677D01*
G37*
%LPD*%
%LPC*%
G36*
X607280Y472937D02*
X607280Y472937D01*
X605797Y473419D01*
X604408Y474127D01*
X603146Y475044D01*
X602044Y476146D01*
X601127Y477408D01*
X600419Y478797D01*
X599937Y480280D01*
X599811Y481077D01*
X608077Y481077D01*
X608077Y472811D01*
X607280Y472937D01*
G37*
%LPD*%
%LPC*%
G36*
X251680Y320537D02*
X251680Y320537D01*
X250197Y321019D01*
X248808Y321727D01*
X247546Y322644D01*
X246444Y323746D01*
X245527Y325008D01*
X244819Y326397D01*
X244337Y327880D01*
X244211Y328677D01*
X252477Y328677D01*
X252477Y320411D01*
X251680Y320537D01*
G37*
%LPD*%
%LPC*%
G36*
X581880Y320537D02*
X581880Y320537D01*
X580397Y321019D01*
X579008Y321727D01*
X577746Y322644D01*
X576644Y323746D01*
X575727Y325008D01*
X575019Y326397D01*
X574537Y327880D01*
X574411Y328677D01*
X582677Y328677D01*
X582677Y320411D01*
X581880Y320537D01*
G37*
%LPD*%
%LPC*%
G36*
X242823Y52323D02*
X242823Y52323D01*
X242823Y59945D01*
X245088Y59945D01*
X250445Y54588D01*
X250445Y52323D01*
X242823Y52323D01*
G37*
%LPD*%
%LPC*%
G36*
X344423Y52323D02*
X344423Y52323D01*
X344423Y59945D01*
X346688Y59945D01*
X352045Y54588D01*
X352045Y52323D01*
X344423Y52323D01*
G37*
%LPD*%
%LPC*%
G36*
X280923Y217423D02*
X280923Y217423D01*
X280923Y225045D01*
X283188Y225045D01*
X288545Y219688D01*
X288545Y217423D01*
X280923Y217423D01*
G37*
%LPD*%
%LPC*%
G36*
X270255Y217423D02*
X270255Y217423D01*
X270255Y219688D01*
X275612Y225045D01*
X277877Y225045D01*
X277877Y217423D01*
X270255Y217423D01*
G37*
%LPD*%
%LPC*%
G36*
X333755Y52323D02*
X333755Y52323D01*
X333755Y54588D01*
X339112Y59945D01*
X341377Y59945D01*
X341377Y52323D01*
X333755Y52323D01*
G37*
%LPD*%
%LPC*%
G36*
X232155Y52323D02*
X232155Y52323D01*
X232155Y54588D01*
X237512Y59945D01*
X239777Y59945D01*
X239777Y52323D01*
X232155Y52323D01*
G37*
%LPD*%
%LPC*%
G36*
X242823Y41655D02*
X242823Y41655D01*
X242823Y49277D01*
X250445Y49277D01*
X250445Y47012D01*
X245088Y41655D01*
X242823Y41655D01*
G37*
%LPD*%
%LPC*%
G36*
X344423Y41655D02*
X344423Y41655D01*
X344423Y49277D01*
X352045Y49277D01*
X352045Y47012D01*
X346688Y41655D01*
X344423Y41655D01*
G37*
%LPD*%
%LPC*%
G36*
X280923Y206755D02*
X280923Y206755D01*
X280923Y214377D01*
X288545Y214377D01*
X288545Y212112D01*
X283188Y206755D01*
X280923Y206755D01*
G37*
%LPD*%
%LPC*%
G36*
X237512Y41655D02*
X237512Y41655D01*
X232155Y47012D01*
X232155Y49277D01*
X239777Y49277D01*
X239777Y41655D01*
X237512Y41655D01*
G37*
%LPD*%
%LPC*%
G36*
X339112Y41655D02*
X339112Y41655D01*
X333755Y47012D01*
X333755Y49277D01*
X341377Y49277D01*
X341377Y41655D01*
X339112Y41655D01*
G37*
%LPD*%
%LPC*%
G36*
X275612Y206755D02*
X275612Y206755D01*
X270255Y212112D01*
X270255Y214377D01*
X277877Y214377D01*
X277877Y206755D01*
X275612Y206755D01*
G37*
%LPD*%
%LPC*%
G36*
X50799Y-85801D02*
X50799Y-85801D01*
X50799Y-85799D01*
X50801Y-85799D01*
X50801Y-85801D01*
X50799Y-85801D01*
G37*
%LPD*%
%LPC*%
G36*
X241299Y50799D02*
X241299Y50799D01*
X241299Y50801D01*
X241301Y50801D01*
X241301Y50799D01*
X241299Y50799D01*
G37*
%LPD*%
%LPC*%
G36*
X584199Y330199D02*
X584199Y330199D01*
X584199Y330201D01*
X584201Y330201D01*
X584201Y330199D01*
X584199Y330199D01*
G37*
%LPD*%
%LPC*%
G36*
X253999Y330199D02*
X253999Y330199D01*
X253999Y330201D01*
X254001Y330201D01*
X254001Y330199D01*
X253999Y330199D01*
G37*
%LPD*%
%LPC*%
G36*
X279399Y215899D02*
X279399Y215899D01*
X279399Y215901D01*
X279401Y215901D01*
X279401Y215899D01*
X279399Y215899D01*
G37*
%LPD*%
%LPC*%
G36*
X577849Y53899D02*
X577849Y53899D01*
X577849Y53901D01*
X577851Y53901D01*
X577851Y53899D01*
X577849Y53899D01*
G37*
%LPD*%
%LPC*%
G36*
X393699Y266699D02*
X393699Y266699D01*
X393699Y266701D01*
X393701Y266701D01*
X393701Y266699D01*
X393699Y266699D01*
G37*
%LPD*%
%LPC*%
G36*
X50799Y53899D02*
X50799Y53899D01*
X50799Y53901D01*
X50801Y53901D01*
X50801Y53899D01*
X50799Y53899D01*
G37*
%LPD*%
%LPC*%
G36*
X165099Y53899D02*
X165099Y53899D01*
X165099Y53901D01*
X165101Y53901D01*
X165101Y53899D01*
X165099Y53899D01*
G37*
%LPD*%
%LPC*%
G36*
X342899Y50799D02*
X342899Y50799D01*
X342899Y50801D01*
X342901Y50801D01*
X342901Y50799D01*
X342899Y50799D01*
G37*
%LPD*%
%LPC*%
G36*
X50799Y193599D02*
X50799Y193599D01*
X50799Y193601D01*
X50801Y193601D01*
X50801Y193599D01*
X50799Y193599D01*
G37*
%LPD*%
%LPC*%
G36*
X577849Y193599D02*
X577849Y193599D01*
X577849Y193601D01*
X577851Y193601D01*
X577851Y193599D01*
X577849Y193599D01*
G37*
%LPD*%
%LPC*%
G36*
X463549Y193599D02*
X463549Y193599D01*
X463549Y193601D01*
X463551Y193601D01*
X463551Y193599D01*
X463549Y193599D01*
G37*
%LPD*%
%LPC*%
G36*
X609599Y482599D02*
X609599Y482599D01*
X609599Y482601D01*
X609601Y482601D01*
X609601Y482599D01*
X609599Y482599D01*
G37*
%LPD*%
%LPC*%
G36*
X577849Y-85801D02*
X577849Y-85801D01*
X577849Y-85799D01*
X577851Y-85799D01*
X577851Y-85801D01*
X577849Y-85801D01*
G37*
%LPD*%
%LPC*%
G36*
X293449Y-129541D02*
X293449Y-129541D01*
X293449Y-129539D01*
X293451Y-129539D01*
X293451Y-129541D01*
X293449Y-129541D01*
G37*
%LPD*%
%LPC*%
G36*
X165099Y193599D02*
X165099Y193599D01*
X165099Y193601D01*
X165101Y193601D01*
X165101Y193599D01*
X165099Y193599D01*
G37*
%LPD*%
%LPC*%
G36*
X463549Y53899D02*
X463549Y53899D01*
X463549Y53901D01*
X463551Y53901D01*
X463551Y53899D01*
X463549Y53899D01*
G37*
%LPD*%
%LPC*%
G36*
X228599Y-139701D02*
X228599Y-139701D01*
X228599Y-139699D01*
X228601Y-139699D01*
X228601Y-139701D01*
X228599Y-139701D01*
G37*
%LPD*%
%LPC*%
G36*
X165099Y-85801D02*
X165099Y-85801D01*
X165099Y-85799D01*
X165101Y-85799D01*
X165101Y-85801D01*
X165099Y-85801D01*
G37*
%LPD*%
%LPC*%
G36*
X463549Y-85801D02*
X463549Y-85801D01*
X463549Y-85799D01*
X463551Y-85799D01*
X463551Y-85801D01*
X463549Y-85801D01*
G37*
%LPD*%
D10*
X558800Y482600D03*
X533400Y482600D03*
X508000Y482600D03*
X482600Y482600D03*
X457200Y482600D03*
X431800Y482600D03*
X406400Y482600D03*
X381000Y482600D03*
X355600Y482600D03*
X330200Y482600D03*
X304800Y482600D03*
X279400Y482600D03*
X279400Y330200D03*
X304800Y330200D03*
X330200Y330200D03*
X355600Y330200D03*
X381000Y330200D03*
X406400Y330200D03*
X431800Y330200D03*
X457200Y330200D03*
X482600Y330200D03*
X508000Y330200D03*
X533400Y330200D03*
X584200Y482600D03*
X558800Y330200D03*
X584200Y330200D03*
X609600Y482600D03*
X609600Y330200D03*
X254000Y482600D03*
X254000Y330200D03*
X228600Y482600D03*
X203200Y482600D03*
X177800Y482600D03*
X152400Y482600D03*
X127000Y482600D03*
X101600Y482600D03*
X76200Y482600D03*
X50800Y482600D03*
X25400Y482600D03*
X25400Y330200D03*
X50800Y330200D03*
X76200Y330200D03*
X101600Y330200D03*
X127000Y330200D03*
X152400Y330200D03*
X177800Y330200D03*
X203200Y330200D03*
X228600Y330200D03*
X584200Y355600D03*
X533400Y355600D03*
X508000Y355600D03*
X482600Y355600D03*
D11*
X393700Y50800D03*
X342900Y50800D03*
X330200Y215900D03*
X279400Y215900D03*
D12*
X293450Y-129540D03*
D13*
X344250Y-129540D03*
D14*
X331470Y266700D03*
X240030Y266700D03*
D15*
X368300Y266700D03*
X393700Y266700D03*
D16*
X270510Y-38100D03*
D17*
X317500Y-38100D03*
X364490Y-38100D03*
D11*
X292100Y50800D03*
X241300Y50800D03*
D18*
X393700Y114300D03*
D19*
X393700Y139800D03*
X393700Y165300D03*
D20*
X406400Y-139700D03*
X228600Y-139700D03*
D21*
X50800Y193600D03*
D22*
X50800Y228600D03*
X50800Y263600D03*
D21*
X165100Y193600D03*
D22*
X165100Y228600D03*
X165100Y263600D03*
D21*
X50800Y53900D03*
D22*
X50800Y88900D03*
X50800Y123900D03*
D21*
X165100Y53900D03*
D22*
X165100Y88900D03*
X165100Y123900D03*
D21*
X50800Y-85800D03*
D22*
X50800Y-50800D03*
X50800Y-15800D03*
D21*
X165100Y-85800D03*
D22*
X165100Y-50800D03*
X165100Y-15800D03*
D21*
X463550Y193600D03*
D22*
X463550Y228600D03*
X463550Y263600D03*
D21*
X577850Y193600D03*
D22*
X577850Y228600D03*
X577850Y263600D03*
D21*
X463550Y53900D03*
D22*
X463550Y88900D03*
X463550Y123900D03*
D21*
X577850Y53900D03*
D22*
X577850Y88900D03*
X577850Y123900D03*
D21*
X463550Y-85800D03*
D22*
X463550Y-50800D03*
X463550Y-15800D03*
D21*
X577850Y-85800D03*
D22*
X577850Y-50800D03*
X577850Y-15800D03*
D23*
X492125Y295275D02*
X457200Y330200D01*
X492125Y295275D02*
X587375Y295275D01*
X596900Y285750D01*
X596900Y180975D01*
X504825Y88900D01*
X463550Y88900D01*
X498475Y314325D02*
X482600Y330200D01*
X598043Y314325D02*
X620268Y292100D01*
X620268Y99568D01*
X609600Y88900D01*
X577850Y88900D01*
X598043Y314325D02*
X498475Y314325D01*
X76200Y330200D02*
X25400Y279400D01*
X25400Y114300D01*
X50800Y88900D01*
D24*
X447650Y139800D02*
X463550Y123900D01*
X463550Y-15800D02*
X466828Y-15800D01*
X463550Y-15800D02*
X577850Y-15800D01*
X317500Y12700D02*
X317500Y69772D01*
X317500Y12700D02*
X298450Y-6350D01*
X174550Y-6350D01*
X165100Y123900D02*
X193750Y123900D01*
X209650Y139800D01*
X165100Y123900D02*
X50800Y123900D01*
X50800Y263600D02*
X165100Y263600D01*
X311150Y215900D02*
X330200Y215900D01*
X260350Y266700D02*
X240030Y266700D01*
X260350Y266700D02*
X311150Y215900D01*
X174550Y-6350D02*
X165100Y-15800D01*
X50800Y-15800D01*
X317500Y69772D02*
X387528Y139800D01*
X393700Y139800D01*
X209650Y139800D01*
X386640Y146860D02*
X393700Y139800D01*
X386640Y146860D02*
X386062Y146860D01*
X367822Y165100D01*
X263600Y165100D01*
X165100Y263600D01*
X367822Y178278D02*
X367822Y165100D01*
X367822Y178278D02*
X330200Y215900D01*
X393700Y139800D02*
X447650Y139800D01*
X400760Y146860D02*
X393700Y139800D01*
X400760Y146860D02*
X401338Y146860D01*
X431800Y177322D01*
X431800Y241300D01*
X454100Y263600D01*
X463550Y263600D01*
X393700Y139800D02*
X400150Y133350D01*
X412750Y133350D01*
X438150Y107950D01*
X438150Y12878D01*
X466828Y-15800D01*
X463550Y263600D02*
X577850Y263600D01*
M02*
