G04 EAGLE Gerber RS-274X export*
G75*
%MOMM*%
%FSLAX34Y34*%
%LPD*%
%INTop Copper*%
%IPPOS*%
%AMOC8*
5,1,8,0,0,1.08239X$1,22.5*%
G01*
%ADD10C,1.473200*%
%ADD11P,1.429621X8X202.500000*%
%ADD12R,1.650000X1.650000*%
%ADD13C,1.650000*%
%ADD14P,1.814519X8X202.500000*%
%ADD15P,1.814519X8X22.500000*%
%ADD16R,2.781300X2.781300*%
%ADD17C,2.781300*%
%ADD18R,1.910000X1.910000*%
%ADD19C,1.910000*%
%ADD20P,4.508804X8X22.500000*%
%ADD21R,2.100000X2.100000*%
%ADD22C,2.100000*%
%ADD23C,1.270000*%
%ADD24C,0.406400*%


D10*
X558800Y482600D03*
X533400Y482600D03*
X508000Y482600D03*
X482600Y482600D03*
X457200Y482600D03*
X431800Y482600D03*
X406400Y482600D03*
X381000Y482600D03*
X355600Y482600D03*
X330200Y482600D03*
X304800Y482600D03*
X279400Y482600D03*
X279400Y330200D03*
X304800Y330200D03*
X330200Y330200D03*
X355600Y330200D03*
X381000Y330200D03*
X406400Y330200D03*
X431800Y330200D03*
X457200Y330200D03*
X482600Y330200D03*
X508000Y330200D03*
X533400Y330200D03*
X584200Y482600D03*
X558800Y330200D03*
X584200Y330200D03*
X609600Y482600D03*
X609600Y330200D03*
X254000Y482600D03*
X254000Y330200D03*
X228600Y482600D03*
X203200Y482600D03*
X177800Y482600D03*
X152400Y482600D03*
X127000Y482600D03*
X101600Y482600D03*
X76200Y482600D03*
X50800Y482600D03*
X25400Y482600D03*
X25400Y330200D03*
X50800Y330200D03*
X76200Y330200D03*
X101600Y330200D03*
X127000Y330200D03*
X152400Y330200D03*
X177800Y330200D03*
X203200Y330200D03*
X228600Y330200D03*
X584200Y355600D03*
X533400Y355600D03*
X508000Y355600D03*
X482600Y355600D03*
D11*
X393700Y50800D03*
X342900Y50800D03*
X330200Y215900D03*
X279400Y215900D03*
D12*
X293450Y-129540D03*
D13*
X344250Y-129540D03*
D14*
X331470Y266700D03*
X240030Y266700D03*
D15*
X368300Y266700D03*
X393700Y266700D03*
D16*
X270510Y-38100D03*
D17*
X317500Y-38100D03*
X364490Y-38100D03*
D11*
X292100Y50800D03*
X241300Y50800D03*
D18*
X393700Y114300D03*
D19*
X393700Y139800D03*
X393700Y165300D03*
D20*
X406400Y-139700D03*
X228600Y-139700D03*
D21*
X50800Y193600D03*
D22*
X50800Y228600D03*
X50800Y263600D03*
D21*
X165100Y193600D03*
D22*
X165100Y228600D03*
X165100Y263600D03*
D21*
X50800Y53900D03*
D22*
X50800Y88900D03*
X50800Y123900D03*
D21*
X165100Y53900D03*
D22*
X165100Y88900D03*
X165100Y123900D03*
D21*
X50800Y-85800D03*
D22*
X50800Y-50800D03*
X50800Y-15800D03*
D21*
X165100Y-85800D03*
D22*
X165100Y-50800D03*
X165100Y-15800D03*
D21*
X463550Y193600D03*
D22*
X463550Y228600D03*
X463550Y263600D03*
D21*
X577850Y193600D03*
D22*
X577850Y228600D03*
X577850Y263600D03*
D21*
X463550Y53900D03*
D22*
X463550Y88900D03*
X463550Y123900D03*
D21*
X577850Y53900D03*
D22*
X577850Y88900D03*
X577850Y123900D03*
D21*
X463550Y-85800D03*
D22*
X463550Y-50800D03*
X463550Y-15800D03*
D21*
X577850Y-85800D03*
D22*
X577850Y-50800D03*
X577850Y-15800D03*
D23*
X238760Y-129540D02*
X228600Y-139700D01*
X238760Y-129540D02*
X293450Y-129540D01*
D24*
X457200Y228600D02*
X355600Y330200D01*
X457200Y228600D02*
X463550Y228600D01*
X419100Y292100D02*
X381000Y330200D01*
X419100Y292100D02*
X495300Y292100D01*
X558800Y228600D02*
X577850Y228600D01*
X558800Y228600D02*
X495300Y292100D01*
X508000Y330200D02*
X539750Y298450D01*
X600075Y298450D02*
X606425Y292100D01*
X606425Y47625D01*
X508000Y-50800D01*
X463550Y-50800D01*
X539750Y298450D02*
X600075Y298450D01*
X552450Y311150D02*
X533400Y330200D01*
X552450Y311150D02*
X609600Y311150D01*
X620268Y300482D01*
X620268Y-38100D01*
X607568Y-50800D01*
X577850Y-50800D01*
X25400Y254000D02*
X25400Y330200D01*
X25400Y254000D02*
X50800Y228600D01*
X158750Y228600D02*
X165100Y228600D01*
X158750Y228600D02*
X57150Y330200D01*
X50800Y330200D01*
X190500Y101600D02*
X177800Y88900D01*
X165100Y88900D01*
X146050Y285750D02*
X101600Y330200D01*
X146050Y285750D02*
X171450Y285750D01*
X190500Y266700D01*
X190500Y101600D01*
X95250Y-50800D02*
X50800Y-50800D01*
X146050Y311150D02*
X127000Y330200D01*
X146050Y311150D02*
X165100Y311150D01*
X184150Y292100D02*
X203200Y292100D01*
X209550Y285750D01*
X184150Y292100D02*
X165100Y311150D01*
X209550Y285750D02*
X209550Y63500D01*
X95250Y-50800D01*
X152400Y330200D02*
X158750Y330200D01*
X184150Y304800D02*
X203200Y304800D01*
X222250Y285750D01*
X184150Y304800D02*
X158750Y330200D01*
X222250Y285750D02*
X222250Y6350D01*
X165100Y-50800D01*
D23*
X368300Y152400D02*
X381200Y165300D01*
X393700Y165300D01*
X292100Y34290D02*
X364490Y-38100D01*
X292100Y34290D02*
X292100Y50800D01*
X317500Y50800D01*
X336550Y31750D01*
X374650Y31750D01*
X393700Y50800D01*
X368300Y76200D01*
X368300Y152400D01*
D24*
X368300Y266700D02*
X331470Y266700D01*
D23*
X354410Y-139700D02*
X406400Y-139700D01*
X354410Y-139700D02*
X344250Y-129540D01*
X317500Y-102790D01*
X317500Y-38100D01*
X463550Y123900D02*
X577850Y123900D01*
M02*
