G04 EAGLE Gerber RS-274X export*
G75*
%MOMM*%
%FSLAX34Y34*%
%LPD*%
%INSoldermask Bottom*%
%IPPOS*%
%AMOC8*
5,1,8,0,0,1.08239X$1,22.5*%
G01*
%ADD10C,3.203200*%
%ADD11C,1.676400*%
%ADD12P,1.649562X8X202.500000*%
%ADD13R,1.853200X1.853200*%
%ADD14C,1.853200*%
%ADD15P,2.034460X8X202.500000*%
%ADD16P,2.034460X8X22.500000*%
%ADD17R,2.984500X2.984500*%
%ADD18C,2.984500*%
%ADD19R,2.113200X2.113200*%
%ADD20C,2.113200*%
%ADD21P,4.728745X8X22.500000*%
%ADD22R,2.303200X2.303200*%
%ADD23C,2.303200*%


D10*
X35560Y-142240D03*
X599440Y-142240D03*
X599440Y523240D03*
X35560Y523240D03*
D11*
X558800Y482600D03*
X533400Y482600D03*
X508000Y482600D03*
X482600Y482600D03*
X457200Y482600D03*
X431800Y482600D03*
X406400Y482600D03*
X381000Y482600D03*
X355600Y482600D03*
X330200Y482600D03*
X304800Y482600D03*
X279400Y482600D03*
X279400Y330200D03*
X304800Y330200D03*
X330200Y330200D03*
X355600Y330200D03*
X381000Y330200D03*
X406400Y330200D03*
X431800Y330200D03*
X457200Y330200D03*
X482600Y330200D03*
X508000Y330200D03*
X533400Y330200D03*
X584200Y482600D03*
X558800Y330200D03*
X584200Y330200D03*
X609600Y482600D03*
X609600Y330200D03*
X254000Y482600D03*
X254000Y330200D03*
X228600Y482600D03*
X203200Y482600D03*
X177800Y482600D03*
X152400Y482600D03*
X127000Y482600D03*
X101600Y482600D03*
X76200Y482600D03*
X50800Y482600D03*
X25400Y482600D03*
X25400Y330200D03*
X50800Y330200D03*
X76200Y330200D03*
X101600Y330200D03*
X127000Y330200D03*
X152400Y330200D03*
X177800Y330200D03*
X203200Y330200D03*
X228600Y330200D03*
X584200Y355600D03*
X533400Y355600D03*
X508000Y355600D03*
X482600Y355600D03*
D12*
X393700Y50800D03*
X342900Y50800D03*
X330200Y215900D03*
X279400Y215900D03*
D13*
X293450Y-129540D03*
D14*
X344250Y-129540D03*
D15*
X331470Y266700D03*
X240030Y266700D03*
D16*
X368300Y266700D03*
X393700Y266700D03*
D17*
X270510Y-38100D03*
D18*
X317500Y-38100D03*
X364490Y-38100D03*
D12*
X292100Y50800D03*
X241300Y50800D03*
D19*
X393700Y114300D03*
D20*
X393700Y139800D03*
X393700Y165300D03*
D21*
X406400Y-139700D03*
X228600Y-139700D03*
D22*
X50800Y193600D03*
D23*
X50800Y228600D03*
X50800Y263600D03*
D22*
X165100Y193600D03*
D23*
X165100Y228600D03*
X165100Y263600D03*
D22*
X50800Y53900D03*
D23*
X50800Y88900D03*
X50800Y123900D03*
D22*
X165100Y53900D03*
D23*
X165100Y88900D03*
X165100Y123900D03*
D22*
X50800Y-85800D03*
D23*
X50800Y-50800D03*
X50800Y-15800D03*
D22*
X165100Y-85800D03*
D23*
X165100Y-50800D03*
X165100Y-15800D03*
D22*
X463550Y193600D03*
D23*
X463550Y228600D03*
X463550Y263600D03*
D22*
X577850Y193600D03*
D23*
X577850Y228600D03*
X577850Y263600D03*
D22*
X463550Y53900D03*
D23*
X463550Y88900D03*
X463550Y123900D03*
D22*
X577850Y53900D03*
D23*
X577850Y88900D03*
X577850Y123900D03*
D22*
X463550Y-85800D03*
D23*
X463550Y-50800D03*
X463550Y-15800D03*
D22*
X577850Y-85800D03*
D23*
X577850Y-50800D03*
X577850Y-15800D03*
M02*
