M48
;GenerationSoftware,Autodesk,EAGLE,9.6.2*%
;CreationDate,2020-09-27T01:51:17Z*%
FMAT,2
ICI,OFF
METRIC,TZ,000.000
T8C0.350
T7C0.813
T6C0.965
T5C1.016
T4C1.100
T3C1.854
T2C3.000
T1C3.302
%
G90
M71
T1
X24384Y13970
T2
X3556Y-14224
X59944Y-14224
X59944Y52324
X3556Y52324
T3
X27051Y-3810
X36449Y-3810
X31750Y-3810
T4
X33790Y-12954
X28710Y-12954
T5
X60706Y22860
X2794Y5080
X5334Y5080
X7874Y5080
X55626Y5080
X58166Y5080
X60706Y5080
X55626Y13970
X58166Y13970
X60706Y13970
X55626Y22860
X58166Y22860
X49276Y5080
X2794Y13970
X5334Y13970
X7874Y13970
X2794Y22860
X5334Y22860
X7874Y22860
X11684Y5080
X14224Y5080
X16764Y5080
X11684Y13970
X14224Y13970
X16764Y13970
X11684Y22860
X14224Y22860
X16764Y22860
X46736Y5080
X19050Y-2540
X51816Y5080
X46736Y13970
X49276Y13970
X51816Y13970
X46736Y22860
X49276Y22860
X51816Y22860
X21590Y-2540
X41910Y-2540
X44450Y-2540
X49530Y-2540
X52070Y-2540
X57150Y-2540
X59690Y-2540
X39370Y11430
X39370Y13970
X39370Y16510
X3810Y-2540
X6350Y-2540
X11430Y-2540
X13970Y-2540
T6
X35560Y48260
X55880Y48260
X53340Y48260
X50800Y48260
X48260Y48260
X45720Y48260
X43180Y48260
X40640Y48260
X38100Y48260
X40640Y33020
X33020Y48260
X30480Y48260
X27940Y48260
X27940Y33020
X30480Y33020
X33020Y33020
X35560Y33020
X38100Y33020
X53340Y33020
X43180Y33020
X45720Y33020
X48260Y33020
X7620Y33020
X10160Y33020
X12700Y33020
X15240Y33020
X17780Y33020
X20320Y33020
X22860Y33020
X58420Y35560
X53340Y35560
X50800Y35560
X48260Y35560
X60960Y33020
X25400Y48260
X25400Y33020
X50800Y33020
X22860Y48260
X58420Y33020
X55880Y33020
X20320Y48260
X17780Y48260
X15240Y48260
X12700Y48260
X10160Y48260
X7620Y48260
X5080Y48260
X2540Y48260
X2540Y33020
X5080Y33020
X60960Y48260
X58420Y48260
T7
X39370Y5080
X33020Y21590
X27940Y21590
X31242Y26670
X22098Y26670
X8313Y-4387
X1847Y-10853
X15933Y-4387
X9467Y-10853
X23553Y-4387
X17087Y-10853
X46413Y-4387
X39947Y-10853
X54033Y-4387
X47567Y-10853
X61653Y-4387
X55187Y-10853
X36830Y26670
X39370Y26670
X34290Y5080
X29210Y5080
X24130Y5080
T8
X9500Y11887
M30