M48
;GenerationSoftware,Autodesk,EAGLE,9.6.2*%
;CreationDate,2021-02-21T05:17:41Z*%
FMAT,2
ICI,OFF
METRIC,TZ,000.000
T8C0.813
T7C0.965
T6C1.100
T5C1.270
T4C1.400
T3C1.600
T2C1.854
T1C3.000
%
G90
M71
T1
X3556Y-14224
X59944Y-14224
X59944Y52324
X3556Y52324
T2
X36449Y-3810
X27051Y-3810
X31750Y-3810
T3
X22860Y-13970
X40640Y-13970
T4
X57785Y19360
X46355Y-1580
X16510Y8890
X57785Y-8580
X57785Y-5080
X57785Y-1580
X5080Y19360
X5080Y22860
X5080Y26360
X16510Y19360
X16510Y22860
X16510Y26360
X5080Y5390
X5080Y8890
X5080Y12390
X16510Y5390
X57785Y12390
X16510Y12390
X5080Y-8580
X5080Y-5080
X5080Y-1580
X16510Y-8580
X16510Y-5080
X16510Y-1580
X46355Y19360
X46355Y22860
X46355Y26360
X57785Y22860
X57785Y26360
X46355Y5390
X46355Y8890
X46355Y12390
X57785Y5390
X57785Y8890
X46355Y-8580
X46355Y-5080
T5
X39370Y11430
X39370Y13980
X39370Y16530
T6
X29345Y-12954
X34425Y-12954
T7
X20320Y33020
X22860Y33020
X58420Y35560
X53340Y35560
X50800Y35560
X48260Y35560
X30480Y48260
X55880Y48260
X53340Y48260
X50800Y48260
X48260Y48260
X45720Y48260
X43180Y48260
X40640Y48260
X38100Y48260
X35560Y48260
X33020Y48260
X27940Y48260
X27940Y33020
X30480Y33020
X33020Y33020
X35560Y33020
X38100Y33020
X40640Y33020
X43180Y33020
X45720Y33020
X48260Y33020
X50800Y33020
X53340Y33020
X58420Y48260
X55880Y33020
X58420Y33020
X60960Y48260
X60960Y33020
X25400Y48260
X25400Y33020
X22860Y48260
X20320Y48260
X17780Y48260
X15240Y48260
X12700Y48260
X10160Y48260
X7620Y48260
X5080Y48260
X2540Y48260
X2540Y33020
X5080Y33020
X7620Y33020
X10160Y33020
X12700Y33020
X15240Y33020
X17780Y33020
T8
X39370Y26670
X27940Y21590
X34290Y5080
X33020Y21590
X29210Y5080
X39370Y5080
X24130Y5080
X33147Y26670
X24003Y26670
X36830Y26670
M30