G04 EAGLE Gerber RS-274X export*
G75*
%MOMM*%
%FSLAX34Y34*%
%LPD*%
%INSoldermask Top*%
%IPPOS*%
%AMOC8*
5,1,8,0,0,1.08239X$1,22.5*%
G01*
%ADD10C,3.203200*%
%ADD11C,1.727200*%
%ADD12C,1.676400*%
%ADD13C,3.505200*%
%ADD14P,1.649562X8X202.500000*%
%ADD15R,1.853200X1.853200*%
%ADD16C,1.853200*%
%ADD17P,2.034460X8X202.500000*%
%ADD18P,2.034460X8X22.500000*%
%ADD19P,2.034460X8X247.500000*%
%ADD20R,2.984500X2.984500*%
%ADD21C,2.984500*%
%ADD22C,0.959600*%


D10*
X35560Y-142240D03*
X599440Y-142240D03*
X599440Y523240D03*
X35560Y523240D03*
D11*
X27940Y58420D02*
X27940Y43180D01*
X53340Y43180D02*
X53340Y58420D01*
X78740Y58420D02*
X78740Y43180D01*
X556260Y43180D02*
X556260Y58420D01*
X581660Y58420D02*
X581660Y43180D01*
X607060Y43180D02*
X607060Y58420D01*
X556260Y132080D02*
X556260Y147320D01*
X581660Y147320D02*
X581660Y132080D01*
X607060Y132080D02*
X607060Y147320D01*
X556260Y220980D02*
X556260Y236220D01*
X581660Y236220D02*
X581660Y220980D01*
X607060Y220980D02*
X607060Y236220D01*
X27940Y147320D02*
X27940Y132080D01*
X53340Y132080D02*
X53340Y147320D01*
X78740Y147320D02*
X78740Y132080D01*
X27940Y220980D02*
X27940Y236220D01*
X53340Y236220D02*
X53340Y220980D01*
X78740Y220980D02*
X78740Y236220D01*
X116840Y58420D02*
X116840Y43180D01*
X142240Y43180D02*
X142240Y58420D01*
X167640Y58420D02*
X167640Y43180D01*
X116840Y132080D02*
X116840Y147320D01*
X142240Y147320D02*
X142240Y132080D01*
X167640Y132080D02*
X167640Y147320D01*
X116840Y220980D02*
X116840Y236220D01*
X142240Y236220D02*
X142240Y220980D01*
X167640Y220980D02*
X167640Y236220D01*
X467360Y58420D02*
X467360Y43180D01*
X492760Y43180D02*
X492760Y58420D01*
X518160Y58420D02*
X518160Y43180D01*
X467360Y132080D02*
X467360Y147320D01*
X492760Y147320D02*
X492760Y132080D01*
X518160Y132080D02*
X518160Y147320D01*
X467360Y220980D02*
X467360Y236220D01*
X492760Y236220D02*
X492760Y220980D01*
X518160Y220980D02*
X518160Y236220D01*
D12*
X558800Y482600D03*
X533400Y482600D03*
X508000Y482600D03*
X482600Y482600D03*
X457200Y482600D03*
X431800Y482600D03*
X406400Y482600D03*
X381000Y482600D03*
X355600Y482600D03*
X330200Y482600D03*
X304800Y482600D03*
X279400Y482600D03*
X279400Y330200D03*
X304800Y330200D03*
X330200Y330200D03*
X355600Y330200D03*
X381000Y330200D03*
X406400Y330200D03*
X431800Y330200D03*
X457200Y330200D03*
X482600Y330200D03*
X508000Y330200D03*
X533400Y330200D03*
X584200Y482600D03*
X558800Y330200D03*
X584200Y330200D03*
X609600Y482600D03*
X609600Y330200D03*
X254000Y482600D03*
X254000Y330200D03*
X228600Y482600D03*
X203200Y482600D03*
X177800Y482600D03*
X152400Y482600D03*
X127000Y482600D03*
X101600Y482600D03*
X76200Y482600D03*
X50800Y482600D03*
X25400Y482600D03*
X25400Y330200D03*
X50800Y330200D03*
X76200Y330200D03*
X101600Y330200D03*
X127000Y330200D03*
X152400Y330200D03*
X177800Y330200D03*
X203200Y330200D03*
X228600Y330200D03*
X584200Y355600D03*
X533400Y355600D03*
X508000Y355600D03*
X482600Y355600D03*
D11*
X401320Y114300D02*
X386080Y114300D01*
X386080Y139700D02*
X401320Y139700D01*
X401320Y165100D02*
X386080Y165100D01*
D13*
X243840Y139700D03*
D14*
X393700Y50800D03*
X342900Y50800D03*
X330200Y215900D03*
X279400Y215900D03*
D15*
X287100Y-129540D03*
D16*
X337900Y-129540D03*
D17*
X312420Y266700D03*
X220980Y266700D03*
D18*
X368300Y266700D03*
X393700Y266700D03*
D11*
X38100Y-17780D02*
X38100Y-33020D01*
X63500Y-33020D02*
X63500Y-17780D01*
X114300Y-17780D02*
X114300Y-33020D01*
X139700Y-33020D02*
X139700Y-17780D01*
X190500Y-17780D02*
X190500Y-33020D01*
X215900Y-33020D02*
X215900Y-17780D01*
X419100Y-17780D02*
X419100Y-33020D01*
X444500Y-33020D02*
X444500Y-17780D01*
X495300Y-17780D02*
X495300Y-33020D01*
X520700Y-33020D02*
X520700Y-17780D01*
X571500Y-17780D02*
X571500Y-33020D01*
X596900Y-33020D02*
X596900Y-17780D01*
D19*
X83129Y-43871D03*
X18471Y-108529D03*
X159329Y-43871D03*
X94671Y-108529D03*
X235529Y-43871D03*
X170871Y-108529D03*
X464129Y-43871D03*
X399471Y-108529D03*
X540329Y-43871D03*
X475671Y-108529D03*
X616529Y-43871D03*
X551871Y-108529D03*
D20*
X270510Y-38100D03*
D21*
X317500Y-38100D03*
X364490Y-38100D03*
D14*
X292100Y50800D03*
X241300Y50800D03*
D22*
X94996Y118872D03*
M02*
